<?xml version="1.0" encoding="UTF-8"?>
<svg id="Camada_1" xmlns="http://www.w3.org/2000/svg" version="1.1" viewBox="0 0 1000 1000">
  <!-- Generator: Adobe Illustrator 30.4.0, SVG Export Plug-In . SVG Version: 2.1.4 Build 226)  -->
  <defs>
    <style>
      .st0 {
        fill: #fc5600;
      }
    </style>
  </defs>
  <path d="M554.42,633.67l-36.35-16.78-59.09,68.35c-9.75,11.28-21.39,17.6-36.64,18.54l-75.59,4.65c-10.86,27.28-26.39,55.49-53.87,52.31-28.93-3.34-42.5-41.31-35.75-60.59l25.48-72.86c7.26-20.75,26.39-22.71,45.37-18.52l60.17-14.36,46.12-66.61c-35.52,6.34-54.05-13.66-66.08-43.86-3.68-17.41,2.13-33.58,14.5-45.88,1.05-29.46,3.72-57.61,11.56-85.49,4.55-16.2,16.28-27.8,31.96-32.66,35.27-10.94,85.15-22.06,120.3-16.47l-9.36-23.65c-14.54.21-30.3-13.57-25.43-28.77,3.47-10.83,15.19-17.68,24.16-24.8l-13.27-14.37c-2.29-2.48-2.96-11.12-1.4-14.04,1.56-2.93,6.2-7.51,10.34-7.93l31.37-3.19c-1.45-4.57-3.29-10.6-3.32-14.81-.05-7.75,9.29-13.72,15.89-10.73l22.37,10.16,1.57-14.88c.27-2.58,4.22-6.64,6.5-7.7,11.22-5.24,20.55,8.92,29.27,19.89,2.5-6.01,4.44-10.24,7.51-13.86,2.55-3,11.15-3.45,14.05.11l15.77,19.36c9.69,8.46,11.75,21.61,10.67,34.58,7.2,9.58,11.74,19.57,13.14,31.75,15.01,4.23,24.47,17.01,25.24,31.26.81,15.08-8.74,27.62-21.65,34.49,5.43,27.98-13.08,56.57-43.6,57.51l21.08,37.98,18.44-13.06c-.87-9.75-.44-17.36,3.48-25.63,3.43-7.24,14.64-7.79,20.35-12.35,12.11-9.66,22.84-16.21,39.06-8.23,22.81,11.23,44.91,50.34,32.3,75.76-5.68,14.73-19.63,27.86-37.76,31.86-17.59,21.51-35.94,41.07-57.58,58.1-14.46,9.59-31.99,13.74-47.09,4.13-11.3-7.18-19.26-19.04-26.63-30.85l-23.54,37.45,42.86,32.14c14.04,10.53,26.56,22.82,35.75,37.59,13.52,21.74,13.3,47.8-3.09,67.39l-67.2,80.32c11.42,8.97,21.03,19.88,24.97,33.65s.04,27.87-9.6,37.21c-9.53,9.24-23.81,12.58-37.71,8.26-29.3-9.1-57.5-20.48-84.96-34.36-17.27-8.73-24.1-29.2-22.55-46.27,1.88-20.68,19.77-29.4,35.01-39.02,15.35-18.7,25.54-43.62,42.49-62.24ZM584.36,615.93l-20.85,29.09-41.63,64.33c-11.55,4.04-24.3,9.17-28.33,21.79-3.66,11.45.62,20.34,11.68,24.55l41.22,15.7,38.35,13.51c9.78,3.44,18.48-2.41,22.71-9.45,4.69-7.8,2.27-18.02-5.54-23.39l-34.61-23.79,46.4-53.61,40.27-51.75c6.95-8.94,9.33-24.44,3.32-34.36-5.86-9.67-14.63-17.61-23.76-24.29l-79.44-58.08,2.5-4.39,11.23,4.91,56.42-92.04,3.54-1.54c.84-.37.82,3.83.34,4.86l-11.15,23.88,25.71,34.28c8.63,11.51,23.61,12.34,35.25,3.18,21.44-16.88,38.91-37.36,57.19-58.55,20.04,1.12,38.79-15.67,36.97-36.74-1.2-13.93-12.26-26.94-25.26-30.9-8.59-2.62-14.88,4.66-20.17,9.97-4.1.9-14.11,1.65-15.93,5.44-4.02,8.39-1.39,16.36.92,24.82l-43.64,33.1c-11.96-31-25.45-60.58-49.71-79.7l7.64-15.58c11.44,5.76,22.91,7.78,34.03,1.44,8.3-4.73,14.84-15.22,14.27-28.16-12.02,3.13-24.9,1.24-26.61-12.01,11.28,5.27,22.26,8.05,31.07.38l2.77-11.33c7.2-2.31,13.24-5.24,17.19-11.5,2.09-3.31,2.21-10.22.45-12.95-4.76-7.37-17.92-4.39-18.95-6.74l-3.07-6.94c-1.66-14.18-6.76-26.77-17.65-35.68.92-14.98-1.83-28.3-10.43-42.14l-9.59,23.67c-.57,1.41-4.1,4.44-5.32,3.57-6.54-4.65-11.34-21.32-22.94-31.81l-2.02,31.25-35.75-18.58,11.5,28.75-21.96-2.04c-9.11-.85-16.5-.4-27.33,2.38l21.96,13.32c2.92,1.77,6.19,6.53,7.25,10.16-14.56,7.3-26.46,13.17-38.38,24.61,13.19-.86,22.56-3.21,32.73,1.37-5.86,11.15-8.53,20.65-3.63,31.74,3.24,7.33,10.33,15.29,19.61,19.17l-10.15,20.25c-45.75-13.38-86.8-2.73-132.53,9.54-13.59,3.65-21.67,11.94-24.99,25.99-6.47,27.37-9.27,55.75-11.02,84.06-5.54,4.9-10.64,11.34-12.79,18.4-5.29,17.38,3.64,33.42,20.51,38.62,11.73,3.62,22.46-.41,29.63-10.97l9.5-14c7.47-11.01.62-24.49-9-32.39l16.18-57.75,57.05-4.66c3.1-.25,9.74,4.02,11.39,6.1-5.5,4.4-10.76,7.8-12.99,13.44l-27.57,69.59c-23.82,20.34-33.26,33.56-31.47,66.05l-49.98,71.75-68.41,17.55c-13.43-6.61-27.47-5.65-30.93,4.35l-26.54,76.73c-3.3,9.55.81,19.82,9.58,23.24,7.27,2.84,18.21.41,22.89-8.12l24.83-45.23,85.35-7.49c8.42-.74,14.59-5.75,19.86-11.88l62.8-73.1-15.65-11.07c-1.15-.81-3.1-5.06-1.8-5.32l4.25-.83,46.53,23.25,54.61,26.66ZM465.66,461.74l20.1-49.77-16.98,1.27-10.33,31.68,7.2,16.82Z"/>
  <path class="st0" d="M584.36,615.93l-54.61-26.66-46.53-23.25-4.25.83c-1.3.25.65,4.5,1.8,5.32l15.65,11.07-62.8,73.1c-5.27,6.13-11.44,11.14-19.86,11.88l-85.35,7.49-24.83,45.23c-4.68,8.53-15.62,10.95-22.89,8.12-8.78-3.42-12.89-13.69-9.58-23.24l26.54-76.73c3.46-10,17.49-10.96,30.93-4.35l68.41-17.55,49.98-71.75c-1.79-32.49,7.65-45.71,31.47-66.05l27.57-69.59c2.23-5.64,7.49-9.04,12.99-13.44-1.65-2.08-8.29-6.35-11.39-6.1l-57.05,4.66-16.18,57.75c9.62,7.9,16.46,21.39,9,32.39l-9.5,14c-7.16,10.56-17.9,14.58-29.63,10.97-16.87-5.2-25.8-21.24-20.51-38.62,2.15-7.06,7.25-13.5,12.79-18.4,1.75-28.31,4.56-56.69,11.02-84.06,3.32-14.05,11.39-22.34,24.99-25.99,45.73-12.27,86.79-22.92,132.53-9.54l10.15-20.25c-9.28-3.88-16.37-11.84-19.61-19.17-4.9-11.09-2.23-20.59,3.63-31.74-10.17-4.58-19.55-2.22-32.73-1.37,11.92-11.44,23.82-17.3,38.38-24.61-1.07-3.63-4.33-8.38-7.25-10.16l-21.96-13.32c10.84-2.78,18.22-3.22,27.33-2.38l21.96,2.04-11.5-28.75,35.75,18.58,2.02-31.25c11.6,10.48,16.4,27.16,22.94,31.81,1.22.87,4.75-2.16,5.32-3.57l9.59-23.67c8.6,13.84,11.35,27.16,10.43,42.14,10.89,8.91,16,21.5,17.65,35.68l3.07,6.94c1.04,2.35,14.2-.63,18.95,6.74,1.76,2.73,1.64,9.64-.45,12.95-3.94,6.25-9.99,9.18-17.19,11.5l-2.77,11.33c-8.81,7.67-19.78,4.88-31.07-.38,1.71,13.24,14.58,15.14,26.61,12.01.56,12.93-5.98,23.43-14.27,28.16-11.12,6.34-22.59,4.31-34.03-1.44l-7.64,15.58c24.27,19.12,37.76,48.7,49.71,79.7l43.64-33.1c-2.32-8.46-4.94-16.43-.92-24.82,1.82-3.79,11.83-4.54,15.93-5.44,5.3-5.31,11.58-12.59,20.17-9.97,13,3.96,24.06,16.97,25.26,30.9,1.82,21.07-16.93,37.86-36.97,36.74-18.28,21.2-35.75,41.68-57.19,58.55-11.64,9.16-26.62,8.33-35.25-3.18l-25.71-34.28,11.15-23.88c.48-1.04.5-5.23-.34-4.86l-3.54,1.54-56.42,92.04-11.23-4.91-2.5,4.39,79.44,58.08c9.13,6.68,17.9,14.62,23.76,24.29,6.01,9.92,3.63,25.42-3.32,34.36l-40.27,51.75-46.4,53.61,34.61,23.79c7.81,5.37,10.23,15.59,5.54,23.39-4.23,7.04-12.93,12.9-22.71,9.45l-38.35-13.51-41.22-15.7c-11.06-4.21-15.34-13.1-11.68-24.55,4.04-12.62,16.78-17.75,28.33-21.79l41.63-64.33,20.85-29.09ZM657.93,248.21c-.42-5.82-4.74-9.2-9.35-8.33-2.85.54-6.03,5.07-6.21,8.85-.25,5.23,3.49,10.12,7.92,10.22s8.06-5.03,7.64-10.75Z"/>
  <path d="M657.93,248.21c.42,5.72-3.39,10.85-7.64,10.75s-8.17-4.99-7.92-10.22c.18-3.78,3.36-8.31,6.21-8.85,4.61-.87,8.93,2.51,9.35,8.33Z"/>
</svg>