<?xml version="1.0" encoding="UTF-8"?>
<svg id="Camada_1" xmlns="http://www.w3.org/2000/svg" version="1.1" viewBox="0 0 1000 1000">
  <!-- Generator: Adobe Illustrator 30.4.0, SVG Export Plug-In . SVG Version: 2.1.4 Build 226)  -->
  <defs>
    <style>
      .st0 {
        fill: #fcc301;
      }

      .st1 {
        fill: #fa5700;
      }

      .st2 {
        fill: #fc5600;
      }

      .st3 {
        fill: #fff;
      }

      .st4 {
        fill: #045cd6;
      }

      .st5 {
        fill: #0661d2;
      }

      .st6 {
        fill: #fcc400;
      }

      .st7 {
        fill: #fb5600;
      }
    </style>
  </defs>
  <g>
    <path d="M142.43,822.86c-3.41-9.6.38-18.18,5.86-25.51.07-6.33,0-13.19,2.88-18.84l-14.69-.29c-9.82-.19-26.94-9.97-25.07-22.51-16.05-2.86-34.22-14.59-29.19-30.54-15.79-7.32-37.92-25.62-25.47-40.11-8.11-8.52-16.57-24.32-10.65-32.52,3.3-4.57,9.59-4.5,14.38-1.4,21.91,14.19,45.2,24.83,71.15,31.47l-15.59-17.7-5.24-5.99c-9.51-10.87-16.4-23.18-18.21-37.71-1.55-12.45-.58-24.61,3.87-36.25,7.49-19.57,23.75-31.63,44.89-24.85-7.2-6.83-13.13-13.51-19.31-20.74l-8.28-9.67c-20.47-23.92-20.34-61.2-5.7-88.62,19.58-36.67,62.51-49.45,101.39-33.31-14.46-15.31-22.4-33.89-20.97-54.96-6.3,5.98-12.28,10.61-19.41,14.9-20,9.99-43.33,10.93-63.95,1.76-21.18-9.42-36.34-27.09-45.1-48.21-5.42-13.06-9.67-25.55-9.69-40-.04-33.68,20.67-66.06,53.24-77.13l-.88-7.57-6.51,1.1c-5.15.87-10.23-2.35-11.06-7.58l-2.15-13.43c-.9-5.65,3.03-10.75,8.65-12.03,13.14-2.98,26.09-5.15,39.47-6.83,5.88-.74,11.01,2.86,12.04,8.67,1.61,9.06,3.85,22.77-2.52,24.58l-8.16,2.32.68,7.03c8.58.88,16.82,3.21,24.34,6.89.57-.12,2.2-1.44,2.02-2.07l-.8-2.9c-.61-2.22,1.69-6.78,4.96-6.68,3.89.12,8.79,3.13,11.02,6.35,1.76,2.54-.72,6.64-3.2,7.34-1.96.55-2.95,1.48-3.92,3.83,10.72,6.59,17.97,15.67,25.92,26.34-.39-19.06,3.46-36.04,12.44-51.39,18.59-31.8,56.83-44.84,90.65-30.09,11.19,5.33,20.51,13.18,26.45,24.33,10.58,8.7,17.19,19.72,20.54,33.94,6.39-12.28,12.98-23.24,22.68-32.33,15.45-14.46,37.42-17.33,55.44-6.05,7.58,5.4,13.81,12.03,18.63,20.17,8.32,7.86,14.37,16.94,20.27,27.48l-1.82-21.87c-1.38-16.67,2.32-32.16,17.83-39.5,15.28-7.23,36.01-6.32,43.15,8.12l4.01,8.11c8.09,3.91,12.21,10.7,15.12,19.98l5.33-23.93c4.48-20.1,16.86-28.93,37.63-28.21,11.14.38,20.48,6.83,23.76,17.38l8.16,7.07c.7-12.84,6.61-24.34,18.22-30.16,15.49-7.76,37.78-7.65,45.57,8.81l3.12,6.59c8.3,3.92,12.24,11,14.92,20.38l5.45-23.56c2.28-9.86,6.27-19.12,15.23-24.44,8.47-5.03,18.81-6.29,28.42-4.33,9.01,1.84,15.66,8.19,18.11,16.96l6.08,5.15c12.05,10.21,11.45,25.75,9.43,41.38-2.49,19.3-4.9,37.91-4.89,57.79,8.92-31,15.28-62.17,20.24-94.01,2.83-18.13,8.91-32.8,26.85-38.91,9.77-3.33,19.75-4.09,29.69-1.1,9.35,3.08,15.73,10.62,18.7,19.83,7.78,4.45,12.92,11.01,15.11,19.5l2.57,16.08c2.2,25.15,6.56,49.24,13.01,73.65l12.63,47.83c2.16,8.19,3.31,16.36,3.71,24.76.92,19.27-11.71,32.34-30.09,37.52l6.02,9.97c1.74,2.88,6.2,4.8,8.46,7.75,4.49,5.84,6.71,13.44,5.75,21.1l-4.39,35.06c-1.98,15.8-3.04,31.06-2.35,47.09l13.33-8.4c9.11-5.74,20.23-2.35,25.48,7.04,1.87,3.33,3.87,6.33,7.03,8.54,6.57,4.6,9.93,11.57,10.48,19.6.8,11.79-.54,23.39-3.62,34.8-2.3,8.54-8.31,14.27-16.21,18.23-15.81,7.94-32.68,12.61-50.14,16.12-13,2.61-30.42,4.14-38.32-5.98l-1.4-.37c-6.51,12.8-23.09,19.65-36.93,20.86-11.55,1.01-18.22-5.82-23.78-15.08-1.5-2.5-3.75-3.98-6.05-5.9l-3.64-3.03-.94-1c-.98,7.16-1.53,12.85-3.98,18.97-6.19,15.49-25.39,22.41-41.83,19.76-6.58-1.06-11.66-4.71-15.15-10.17l-4.43,7.49c20.21-.31,20.79,13.03,30.53,21.76,7.29,6.54,10.64,16.88,6.53,26.66l-40.34,95.97c-2.11,5.01-2.44,9.84-2.79,15.18l-4.04,61.68c-.66,10.09-7.18,17.9-16.77,20.66-8.41,2.42-16.95,4.28-25.71,4.79-6.88.4-12.79-2.79-16.59-8.01l-5.62-7.72c-1.72,7.69-5.72,14.44-13.12,17.11-8.96,3.23-18.06,5.27-27.62,6.66-5.32.77-11.76-1.27-15.1-5.38l-12.74-15.68-7.9-9.61-5.06,24.31c-1.55,7.43-6.2,12.73-13.45,15.12-8.49,2.8-17.29,4.65-26.25,5.88-8.64,1.19-15.46-2.77-20.77-9.46l-11.41-14.37c-5.33,7.24-10.36,13.1-16.63,19.04-19.18,18.2-46.69,27.02-72.99,29.06-8.54.66-15.93-3.01-20.9-9.65l-8.32-11.1c-4.01-5.34-8.41-10.14-8.75-17.49l-8.08-175.02c-.61-13.24,6.37-24.08,18.4-28.51,14.16-5.22,28.8-8.12,43.95-8.5l-9.69-12.45c-3.05-3.92-7.75-6.32-9.84-11.14-2.65-6.13-4.61-12.68-4.16-19.53l1.94-29.36c-13.74,17.24-31.34,28.59-52.75,31.89l5.17,28.73c3.22,17.9,2.11,36.5-13.88,46.2-15.43,9.36-39.78,13.1-51.34-1.91l-6.24-8.1c-2.69-3.5-6.38-6.58-9.4-9.26-15.42,27.67-42.02,43.14-73.52,45.42l.19.97c13.48,8.29,19.07,24.22,12.57,38.9l18.51,9.71c-.98-15.23,12.28-27.56,27.19-25.2,6.53,1.03,11.2,6.73,13.66,12.38l7.66,17.58c4.64.09,8.5,1.87,10.73,4.96,2.74,3.79,3.73,8.34,1.65,12.63l-.59,1.21c-.38.79,6.2.46,10.13,5.64,2.77,3.65,2.33,7.76.84,11.59,4.36.06,7.77,1.67,10.23,4.15,3.97,4,2.35,8.36,2.33,12.77l25.1,15.29c8.53,6.14,13.05,15.73,11.73,26.23,3.37,10.42-.96,20.63-9.85,26.84-21.99,15-49.25,15.09-74.5,6.83-14.31-4.68-26.93-11.94-39.39-20.31-6.04-4.06-12.24-6.97-19.11-9.36l-28.31-9.82c-4.5-1.56-8.57-4.21-12.54-6.81-4.28-2.81-8.01-7.01-9.8-12.06ZM833.23,264.42c16.19-.74,4.46,33,8.84,53.97,1.32,6.32,5.88,11.27,12.63,11.71,16.83,1.09,38.28-9.64,38.56-28.06.12-7.62-.96-15.25-2.88-22.81l-14.35-56.62c-5.62-22.16-9.32-43.83-11.06-66.59-.53-6.9-1.37-13.5-3.04-20.03-2.56-10-10.57-16.86-20.86-17.57-6.87-.48-13.65.55-20.06,3.02-13.05,5.01-18.04,16.49-20.16,30.16-3.89,25.09-8.55,49.48-14.59,74.11l-5.95,24.25c-4.83,19.71-10.05,38.87-13.34,58.94-1.06,6.46-.72,12.74.81,18.7,3.5,13.6,22.23,15.77,35,11.12,7.65-2.78,12.75-9.16,14.38-17.22,1.29-6.4.63-12.87.52-19.42l-.39-22.28c-.06-3.59,1.05-8.06,3.28-10.72,2.98-3.55,7.88-4.45,12.65-4.66ZM668.39,246.35l7.76,36.22c1.31,6.12,6.99,12,13.18,10.45,7.01-1.76,9.52-12.5,11.27-20.89l6.42-30.78,4.24-13.8c.35-1.15,2.78-2.46,3.92-2.39,5.7.37,5.35,20.55,3.86,29.3l-6.79,40.1-4.35,27.1c-1.01,6.27.36,12.63,2.66,18.46,5.25,13.27,23.97,9.39,36.56,1.96,6.97-4.12,11.08-10.94,11.73-18.96.55-6.72.62-13.4-.4-20.17l-5.78-38.39c-3.3-21.87-3.13-43.35-.09-65.25l3.9-28.07c1.64-11.81,2.34-29.19-6.5-35.47-6.77-4.81-14.95-4.44-22.63-2.75-9.59,2.11-16.43,8.69-18.59,18.44l-5.41,24.38c-1.9,8.57-7.96,25.72-14.26,25.69-4.52-.02-8.2-7.36-9.4-12.75l-5.72-25.67c-1.19-5.35-3.31-11.36-7.62-14.7-6.28-4.86-14.19-4.15-21.53-3.04-14,2.12-23.69,12.67-24.12,27-.73,24.75,10.43,56.37,4.05,95.33l-7.86,48c-2.89,17.65-4.5,37.48,12.53,43.77,13.45,4.96,33-.61,36.53-15.88,1.68-7.29,1.97-15.05.53-22.67l-6.44-33.94c-2.67-14.05-8.67-53.59.78-55.35,4.51-.84,6.17,8.15,7.57,14.71ZM513.93,275.22l5.41,26.68c.72,3.56,2.6,7.41,4.89,10.18,3.34,4.05,10.1,3.64,13.31-.35,2.42-3,4.31-6.79,5.14-10.64l8.85-41.19,4.05-12.43c.35-1.09,3.01-2.28,4.1-2.01,8.78,2.17,2.02,42.67-.65,56.57l-7.35,38.27c-1.32,6.88-.5,13.76,1.74,20.15,5.03,14.31,25.43,9.81,38.73,1.43,14.28-9,11.77-28.11,9.43-44.74l-5.82-41.25c-2.42-17.18-2.18-34-.11-51.29l3.97-33.19c1.91-15.98.91-33.8-15.8-36.21-7.72-1.11-15.92.34-22.56,4.64-6.24,4.04-8.96,10.91-10.49,18.07l-5.12,23.92c-1.86,8.68-9.22,24.87-15.49,20.6-7.08-4.82-10.21-21.66-12.32-32.29-2.18-11.02-5.38-21.94-17.52-23.18-9.32-.95-19.73,1.02-26.86,7.43-6.43,5.78-8.38,14.79-8.17,23.26.65,26.11,8.33,55.66,3.53,86.66l-5.99,38.73c-2.96,19.14-11.15,50.79,10.06,57.67,8.38,2.71,17.54,1.89,25.54-2.03,12.47-6.1,13.76-24.29,11.34-37.71l-5.28-29.15c-2.67-14.76-4.85-29.19-5-44.12-.07-7.09,1.36-15.86,5.69-15.29,5.04.67,7.09,14.57,8.75,22.78ZM322.26,368.72c6.25-17.21,7.08-35.06,3-52.55-6.97-29.87-29.17-43.45-52.82-60.11-11.28-7.95-22.75-17.82-17.5-31.91,1.35-3.63,4.37-6.42,7.2-7.49,3.85-1.46,8-1.23,11.22,1.2,7.21,5.44,4.79,16.89,15.09,22.25,12.06,6.28,26.21-1.25,30.8-15.31,4.68-14.33,3.03-30.36-5.19-43.19-7.07-11.04-18.26-17.75-30.82-20.75-26.65-6.39-53.42,4.07-68.83,26.66-8.97,13.16-13.57,28.44-14.02,44.52-.51,18.33,6.27,35,19.05,47.9,14.2,14.34,30.08,21.47,44.34,36.21,5.33,5.51,7.84,13,5.48,20.14-1.49,4.51-5.24,7.59-9.37,8.16-9.1,1.26-13.47-7.72-16.72-17.15-4.26-12.35-17.96-17.77-29.53-11.39-6.21,3.43-10.68,9-13.44,15.74-13.22,32.26.48,71.66,35.24,81.74,36.09,10.47,73.87-9.02,86.82-44.67ZM94.6,190.12l43.41-7.31-1.55-14.84c-.25-2.44-2.43-4.3-5.01-3.95-12.94,1.75-25.38,4-38.15,6.62-2.83.58-4.12,3.27-3.71,5.79l1.77,10.97c.25,1.55,1.41,3.02,3.24,2.72ZM427.86,375.36c31.14-37.51,31.12-101.3,18.06-146.93-3.2-11.18-7.69-21.28-14.23-30.71-11.76-16.98-31.05-25.68-49.82-16.22-23.09,11.64-37.18,45.35-42.61,70.36-4.39,20.21-6.27,40.1-4.57,60.72,2.03,24.73,9.41,53.98,27.35,71.23,20.01,19.25,47.85,13.2,65.83-8.45ZM164.19,211.37l3.07-5.25c1.66.58,3.44.63,4.01-.26,1.55-2.41-3.27-5.65-7.42-6.51-.67-.14-2.37,1.86-2.02,2.45l1.61,2.72-2.61,4.89,3.37,1.95ZM147.01,348.41c40.48-13.84,59.78-58.76,43.31-97.75-9.49-22.47-29.9-39.79-54.44-43.34-30.59-4.43-58.44,13.14-71.32,40.19-14.38,30.19-8.12,65.04,17.45,87.13,17.56,15.18,42.2,21.56,65.01,13.77ZM617.28,268.73c1.81-11.18,2.43-22.48,1.62-33.79-1.93,11.4-2.27,22.3-1.62,33.79ZM329.92,262.27c-8.96,5.83-18.91,7.18-27.7,2.9-7.1-3.58-10.98-9.91-14.88-16.63l-8.88-6.77c-2.08.8-4.44,5.77-2.44,7.63,3.85,3.59,8.03,6.44,12.43,9.36,15.17,10.03,27.85,22.17,38.39,37.49l3.08-33.98ZM234.67,308.38c-7.12-7.33-13.16-14.34-19.65-22.3.25,8.04-.1,14.69-1.49,22.76,6.52-3.11,13.75-2.98,21.14-.46ZM711.34,482.42c7.78-29.67,13.77-59.44,18.96-89.87,1.16-6.78,3.21-12.55,6.56-18.46-11.23-1.48-16.46-9.48-21.07-19.07-13.8-6.85-15.64-20.95-14.7-35.87-3.81-.68-7.91-1.86-10.02-5.02l-7.49-11.23,2.94,17.98,3.35,29.2c.88,7.67-1.05,15.1-5.35,21.92,7.94,2.22,13.34,7.06,16.36,14.6.64,1.6,3.16,3.74,4.61,4.99,10.65,8.33,13.03,18.87,11.3,32.26l-4.43,34.36c-1.05,8.13-1.41,15.88-1.01,24.22ZM261.69,335.27c.53-.84,1.34-3.08,1.21-4.1s-1.48-2.44-2.54-3.23l-13.87-10.39c1.67,3.31,2.82,6.5,4.81,9.03,2.69,3.43,6.58,5.64,10.4,8.68ZM564.04,384.5l-5.29-8.41c-13.19-6.14-15.56-20.46-14.05-35.28-4.38-1.17-8.96-3.17-11.45-7.07l-5.91-9.27,4.46,33.07c1.14,8.48,1.07,16.66-.48,24.94-2.6,13.9-13.61,23.53-28.18,24.4l3.39,6.42c5.85,4.45,10.4,9.19,13.74,15.46,9.84-19.72,23.66-36.08,43.77-44.26ZM830.75,467.6c1.85-14.94,1.8-29.37.5-44.33l-3.29-38.04c-1.69-19.57,7.19-32.52,25.85-38.14l-6.3-9.63c-1.24-1.89-4.93-4.14-6.72-5.52-.92,10.89-4.44,21.4-13.17,27.77s-19.83,7.5-30.74,6.51l4.38,8.08c2.9,5.35,13.7,7.44,17.49,28.07l11.99,65.22ZM930.99,512.72c3.32-14.86,6.47-42.1-7.82-43.65-3.42-.37-7.41,1.62-10.19,3.62-8.24,5.96-24.8,16.12-31.01,11.8-5.05-3.52-5-24.68-5.17-35.68-.28-18.09,1.74-35.61,4.45-53.54,2.71-17.97,7.88-40.85-11.02-43.08-7.71-.91-14.86,1.01-21.74,4.43-7.96,3.95-13.1,11.2-13.49,20.41s.35,17.74,1.45,26.87c2.72,22.59,3.12,44.36,1.32,67.01l-3.42,42.77c-.56,7.04.22,14.05,1.64,20.74,2.69,12.67,15.63,13.83,28.43,11.64,17.92-3.07,35.23-8.09,51.7-15.46,7.68-3.44,13-9.54,14.87-17.88ZM781.61,357.64l-3.37-5.13-2.72,4.76,6.09.37ZM776.08,513.46l.37,19.64c.11,5.7.06,11.24,1.71,16.56,4.85,15.69,28.53,9.76,41.19-1.64,4.09-3.69,6.4-8.53,6.15-14.21-.45-10.06-2.73-19.42-5-29.32l-16.56-72.29-9.22-52.74c-1.45-8.29-7.74-14.09-15.84-14.98-6.96-.77-13.45.45-20.13,2.52-10.84,3.36-18.82,11.83-20.86,23.52-5.76,33.03-12.73,65.25-20.65,97.99l-13.37,55.29c-2.24,9.26-2.08,22.81,5.96,27.2,5.36,2.93,11.14,2.74,17.02,1.92,13.4-1.85,23.26-11.88,24.26-25.59l.07-24.45c.03-9.79,6.57-16.19,16.03-16.58,4.63-.19,8.78,1.55,8.88,7.15ZM639.15,418.71l-.21-18.12c1.06-5.44,2.44-10.14,5.94-14.95-8.98-2.17-15.41-8.47-20.44-16.93-3.51,7.61-7.85,13.4-14.76,17.95,8.38,4.89,13.92,11.68,18.34,19.58,4.43,3.74,8.11,8.07,11.13,12.47ZM385.92,435.38c.56-6.27,3.83-11.27,8.01-16.12-7.71-1.71-14.25-5.39-20.23-10.47-5.34-5.08-9.71-10.65-13.87-16.72-4.58-4.6-8.7-9.25-12.52-14.49-3.1,13.8-8.74,26.3-18.23,36.88,17.1,1.91,32.71,8.54,43.86,21.23l11.64,14.75,1.36-15.05ZM693.85,555.44c.37-10.39-.72-20.39-1.73-30.76l-3.77-38.61c-1.07-17.92-.04-35.13,2.28-52.82l3.75-28.62c1.59-12.12-.62-23.6-12.65-26.09-6.73-1.39-13.24-.02-19.66,2.35-9.88,3.64-16.25,12.22-16.35,23.04l2.07,27.44c3.41,26.33,3.24,52.17-.26,78.5l-4.25,43.34c-.58,5.91.04,11.79,1.15,17.4,1.4,7.05,6.61,12.33,13.82,13.13,18.28,2.03,34.93-9.52,35.6-28.32ZM472.64,395.53l-6.38-8.95-6.96-5.54-11.3,17.01,24.65-2.52ZM584.61,522.78c-5.05,3.41-11.95,3.7-16.89.57-20.5-12.99-20.55-67.31,1.02-89.27,3.29-3.35,8.81-4.71,12.83-2.27,7.62,4.64,2.22,16.78,8.74,22.62,4.31,3.86,10.67,4.33,16.14,2.36,18.38-6.62,22.39-32.34,12.74-49.92-7.4-13.49-21.98-20.41-37.38-19.28-28.33,2.08-46.84,24.66-57.87,49.69-12.18,27.64-16.81,57.84-14.37,88.02,1.75,21.63,8.5,46.3,23.13,62.13,14.27,15.44,36.05,20.01,55.3,11.6,28.42-12.42,42.66-41.62,44.29-71.85.34-6.38-.66-12.53-3.11-18.13-3.9-8.9-13.35-12.69-22.45-9.32-11.52,4.26-12.06,16.26-22.13,23.05ZM441.47,557.44c-2.77-7.46-2.58-15.5.31-22.51,2.01-4.85,7.29-6.46,12.32-6.36,12.15.22,26.32.88,29.97-11.22,2.31-7.67,2.97-15.87,1.57-23.86-1.21-6.91-7.47-11.11-14.46-11.07-6.35.03-12.01,2.48-17.87,5.1-4.07,1.82-9.91,1.88-11.98-2.89-3.27-7.55-2.55-17.31,2.01-24.28,2.29-3.51,7.57-4.61,11.45-4.34l21.66,1.55c8.1.58,15.47-3.06,18.7-10.5,6.09-14,7.11-37.37-4.39-41.74-6.28-2.39-13.07-3.02-19.83-2.62-20.31,1.22-44.98,5.01-62.8,14.15-10,5.13-15.8,14.26-16.53,25.63-1.44,22.38,7.41,53.12,4.2,89.88l-4.04,46.33c-.72,8.28-1.32,16.19-.17,24.2,1.55,10.76,9.18,17.98,20.22,18.94,22.37,1.95,57.02-6.09,76.8-17.58,4.96-2.88,9.49-6.89,11.5-12.43,4.12-11.37,4.19-24.05.3-35.27-2.76-7.96-10.61-12.11-18.15-8.68l-15.31,6.98c-8.52,3.88-22.54,10.52-25.49,2.59ZM188.65,670.79c26.78-7.34,47.41-27.65,54.67-54.14,5.61-20.48,4.52-42.09-4-61.56-15.55-35.55-71.66-48.42-77.43-70.26-1.37-5.19.19-10.47,3.67-13.59,3.74-3.36,9.46-4.55,14.01-2.02,4.09,2.27,6.06,6.6,7.73,10.83,3.01,7.64,8.78,13.65,17.24,14.42,10.7.98,19.78-5.49,23.85-15.43,5.67-13.87,5.55-29.81-.97-43.52-4.6-9.67-12.71-16.53-22.03-21.33s-19.35-6.5-30.02-6.47c-28.03.06-53.03,16.32-63.95,42.09-6.57,15.49-8.68,32.02-5.21,48.48,4.86,23.06,20.03,36.34,39.41,48.19,9.92,6.06,19.47,11.97,28.31,19.4,5.29,4.44,9,10.3,9.06,17.2.04,5.25-2.24,9.94-6.09,12.49-3.9,2.59-9.07,2.95-13.56,1.06-10.62-4.47-9.65-18.11-18.79-25.96-10.82-9.28-26.61-6.32-35.12,4.9-7.68,10.14-10.7,22.36-10.74,35.22-.05,20.47,9.31,38.99,26.49,50.29,18.65,12.26,41.34,15.75,63.47,9.69ZM305.27,649.21c15.93-9.35,12.53-29.17,9.36-46.77l-4.56-25.32c-.1-.55.2-2.15.56-2.59s1.5-.8,2.4-.9c25.33-2.93,47.55-18.25,59.01-41.1s13.29-46.88,6.07-71.92c-5.73-19.88-20.93-33.55-41.25-37.71-23.06-4.72-47.64.28-66.62,14.37-13.54,10.05-16.62,25.65-13.08,41.83,4.32,19.76,8.05,39.24,6.59,59.5l-2.81,39.15-2.99,35.33c-.78,9.25-.48,18.2,1.52,27.19,1.87,8.4,8.69,14.29,17.25,15.02,9.85.84,19.82-.93,28.56-6.06ZM256.4,441.13c-7.08-1.39-12.95-3.54-19.33-6.46,5.21,5.7,9.63,11.6,13.23,18.73l6.1-12.27ZM640.29,510.2c2.32-16.73,3.24-31.4,2.82-47.92-4.99,9.77-12.32,17.08-22.92,19.44-8.35,1.86-16.16-.58-21.77-7.06l-6.47-9.42c-1.07-1.56-4.47-3.49-6.14-4.79-10.32,15.84-13.44,40.07-7.58,57.84,7.84-2.64,9.86-11.67,16.56-18.55,5.82-5.97,13.7-8.92,21.83-7.93,7.69.93,14.5,5.32,18.79,12.49,1.3,2.17,3.03,4.3,4.88,5.89ZM493.85,491.54l8.31,7.59,2.11-19.11c-5.13,2.22-10.74,3-15.87,2.59l5.45,8.92ZM199.28,507.6c-1.84-3.25-3.54-5.54-5.41-7.77l-8.57-7.14-2.07,4.46,16.05,10.44ZM244.44,546.61l11.4,13.86.92-22.89c.59-14.71-.57-28.9-3.69-43.85-6.79,17.66-19.12,26.94-37.6,24.68,11.95,7.93,20.22,17.55,28.97,28.2ZM506.76,551.46l-2.46-12.09-2.94,4.87,5.4,7.22ZM175.39,583.83l-14.53-10.05-6.59-4.12,5.41,8.3,12.28,12.55c1.97-.61,4.81-4.42,3.43-6.68ZM663.86,634.12c2.49-9.18,4.96-17.73,8.85-25.45-8.15-.73-13.84-5.52-17.9-11.83-2.77-4.48-5.88-8.35-10.63-11.49-3.68,7.68-8.07,14.39-14.33,21.08,8.38-.4,14.88,2.84,18.61,9.51,2.73,4.29,6.1,7.65,9.46,11.46l5.94,6.72ZM498.8,708.69l11.43-54.54c5.78-24.93,27.64-28.03,50.05-30.96-16.07-6.87-21.71-20.58-33.92-31.52-1.28,23.73-9.91,33.2-31.18,42.3-15.95,6.82-31.99,10.16-49.84,12.72,13.2,5.88,21.64,15.82,30.37,26.27,9.28,11.11,17.46,21.79,23.09,35.73ZM632.24,784.29l-.52,20.6c.57,6.51,5.92,10.59,12.19,10.19,8.62-.55,17.06-1.91,25.14-5.03,4.95-1.91,8.03-7.5,8.34-12.75l3.09-52.92c.32-5.44-.59-12.02,1.56-17.25l40.01-97.09,3.53-9.35c1.71-4.53,1.41-8.9-1.64-13.13-6.2-8.6-22.04-6.19-33.32-3.22-7.34,1.93-12.69,7.03-15.09,14.39l-14.03,43.16c-.23.71-1.32,2.03-1.89,2.41s-1.98-.22-2.86-.71l-12.99-41.29c-2.06-6.03-6.98-9.68-13.39-8.94-10.14,1.17-19.7,4.27-28.57,9.06-7.85,4.24-10.02,12.85-6.16,20.98l34.78,73.32c1.73,3.65,4.52,8.05,4.34,12.09l-2.53,55.47ZM588.36,644.93c-1.78-6.75-2.19-12,.11-17l-15.71-.56c6.6,5.47,8.73,12.84,15.6,17.56ZM538.41,795.37c6.18-2.14,11.66-3.49,18.07-4.38,2.28-.32,4.53,1.64,4.95,3.68l4.53,21.84c.96,4.64,6.6,7.6,11.53,7.2,8.52-.7,16.82-2.79,24.87-5.46,8.52-2.82,13.47-11.03,11.49-19.58l-6.21-26.8-25.99-103.93-6.74-26.13c-1.95-7.57-9.01-13.19-16.87-11.5l-23.84,5.13c-9.89,3.26-15.52,11.17-17.55,21.02l-9.05,44.04-21.9,104.84-2.88,20.6c-.24,6.64,4.93,12.23,11.68,12.2,9.53-.04,18.92-1.88,27.85-4.99,4.8-1.67,8.5-5.44,9.32-10.44l3.72-22.51c.26-1.58,1.54-4.33,2.99-4.83ZM422.28,851.37c25.61-11.15,42.99-32.04,52.87-57.57,11.68-30.19,13.47-63.62,4.49-94.69-5.41-18.71-16.38-34.41-33.17-44.08-24.73-14.25-56.22-11.61-82.02-1.08-7.91,3.23-12.63,10.52-12.33,18.84l1.37,38.23,6.92,138.65c.4,8.1,6.76,13.2,14.64,12.85,16.23-.72,31.96-4.52,47.24-11.17ZM144.54,750.3c-8.61,3.65-16.83,4.56-26.16,5.54-.35,2.31.4,5.14,2.11,6.99,10.67,11.55,31.73,9.72,46.65,4.27,3.79,6.03,9.01,10.49,15.39,13.69,10.23,5.14,19.75,1.26,26.72-7.69-12.41-3.2-21.4-12.87-21.68-25.64-.1-4.36,1.83-8.97,3.21-12.99,3.88-11.3.16-22.76-10.19-28.88-6.57-3.88-13.71-5.92-21.35-7.82-20.85-5.18-41.02-10.71-60.91-18.92-15.1-6.23-28.57-14.03-42.21-22.78-.96-.62-3.3-.8-4.07-.19-2.8,2.25-.13,9.98,2.99,15.49,5.21,9.18,12.85,15.27,21.43,21.9-5.9,1.23-12.61-5.56-15.34-3.05-2.09,1.92-1.37,7.02,1.13,10.49,12.29,17.08,35.48,25.09,55.74,23.47-1.5-1.73-2.54-2.8-1.24-4.89,7.69,7.9,16.22,13.37,27.05,15.81.26.16,1.11,1.87.62,2-5.34,1.35-17.23-4.93-23.81-9.69-10.1.81-20.13.77-30.38-1.23-7.01,7.48,5.02,17.05,15.54,20.84,14.37,5.18,25.5.69,38.76,3.26ZM628,727.96l-25.94-54.59,23.59,96.95,2.35-42.36ZM240.57,763.52l16.74-7.57-8.78-20.82c-2.83-4.95-7.86-7.66-13.49-5.8-12.1,3.99-15.17,13.78-12.12,26.24,7.34-.76,13.19,2.61,17.66,7.94ZM241.51,778.07c8.87-6.1,18.02-10.28,28.78-11.01.4-2.35-.28-4.81-1.64-6.17-5.7-5.7-24.01,4.19-32.34,10.04-2.18,1.53-2.72,4.65-1.55,6.47,1.3,2.03,4.32,2.34,6.75.67ZM187.21,841.89c11.86,3.6,22.2,8.41,32.45,15.35,22.15,14.99,48.89,25.26,76.13,21.13l16.8-20.64c4.2-5.16,10.48-8.32,15.91-11.74,1.98-7.35-2.4-15.6-8.69-19.42l-16.81-10.21-13.37-10.1c-7.78,2.28-14.53,6.54-21.24,10.94-3.32,2.18-7.74-.12-9.3-2.77-4.1-6.96,4.25-10.84,2.77-13.65-3.23-6.14-6.28,3.61-13.38-1.28-2.69-1.85-4.19-5.75-2.52-9.31,1.11-2.35,3.19-4.13,5.48-6.04l-4.29-5.25c-5.85,3.95-11.46,5.62-15.39.83-1.5-1.82-2.13-5.09-.98-7.54,1.32-2.81,3.78-4.7,6.71-6.39-8.44-11.41-21.65-5.4-33.62,1.52l9.52,4.44c3.25,1.51,5.64,5.36,7.82,8.43,10.23,14.44,20.91,27.99,33.58,40.29,5.72,5.55,12.22,8.86,19.67,12-.8,2.04-2.78,1.84-4.57,1.16-9.49-3.62-16.72-9.76-24.19-17.57l-15.3,20.55-12.46-7.8,18.18-23.65-14.23-18.19-9.64-12.39c-8.37,9.99-18.76,14.6-30.25,9.53-6.32-2.79-11.29-7.38-15.37-12.94-10.94,4.27-12.85,16.3-11.39,27.94-5.61,5.62-9.86,13.39-6.61,21.47,4.42,10.97,25.48,17.31,38.59,21.29ZM253.97,782.54l14.96-6.86-3.03-4.72-16.27,6.03,4.33,5.55ZM256.19,795.86c7.79-5.44,15.49-8.76,24.66-10.01.82-13.55-18.65-4.64-29.2,2.72-2.38,1.66-3.32,5.15-1.37,7.46,1.21,1.44,4.11,1.08,5.9-.17ZM265.73,800.19l13.33-6.82c.58-1.08-2.11-3.48-3.34-2.97l-13.69,5.68c1.16,1.68,2.56,3.36,3.71,4.12ZM267.23,813.66c8.24-5.84,16.2-9.76,25.69-12.03.11-2.35-.44-4.36-1.64-5.24-1.01-.74-4-1.7-5.24-1.3-8.29,2.68-15.64,6.29-22.45,11.4-1.53,1.15-2.07,3.97-1.53,5.47.58,1.63,3.27,3.05,5.17,1.71ZM329.54,849.47c-8.79,3.33-14.87,9.34-20.08,16.42l-8.15,11.09c15.17-2.78,32.34-12.02,28.24-27.51Z"/>
    <path d="M827.2,786.58l-14.77-6.82-24.01,27.77c-3.96,4.58-8.69,7.15-14.89,7.53l-30.71,1.89c-4.41,11.08-10.72,22.55-21.89,21.26-11.76-1.36-17.27-16.78-14.53-24.62l10.35-29.6c2.95-8.43,10.72-9.23,18.43-7.52l24.45-5.84,18.74-27.07c-14.43,2.58-21.96-5.55-26.85-17.82-1.5-7.08.86-13.64,5.89-18.64.43-11.97,1.51-23.41,4.7-34.74,1.85-6.58,6.62-11.29,12.99-13.27,14.33-4.45,34.6-8.96,48.88-6.69l-3.8-9.61c-5.91.08-12.31-5.51-10.33-11.69,1.41-4.4,6.17-7.18,9.82-10.07l-5.39-5.84c-.93-1.01-1.2-4.52-.57-5.71s2.52-3.05,4.2-3.22l12.75-1.3c-.59-1.86-1.34-4.31-1.35-6.02-.02-3.15,3.78-5.58,6.45-4.36l9.09,4.13.64-6.05c.11-1.05,1.72-2.7,2.64-3.13,4.56-2.13,8.35,3.62,11.89,8.08,1.02-2.44,1.8-4.16,3.05-5.63,1.03-1.22,4.53-1.4,5.71.04l6.41,7.87c3.94,3.44,4.78,8.78,4.34,14.05,2.93,3.89,4.77,7.95,5.34,12.9,6.1,1.72,9.94,6.91,10.25,12.7.33,6.13-3.55,11.22-8.8,14.01,2.21,11.37-5.31,22.99-17.72,23.37l8.57,15.43,7.49-5.31c-.35-3.96-.18-7.06,1.42-10.41,1.4-2.94,5.95-3.17,8.27-5.02,4.92-3.93,9.28-6.59,15.87-3.34,9.27,4.56,18.25,20.45,13.13,30.78-2.31,5.98-7.98,11.32-15.34,12.95-7.15,8.74-14.6,16.69-23.4,23.61-5.88,3.9-13,5.58-19.13,1.68-4.59-2.92-7.82-7.74-10.82-12.53l-9.57,15.22,17.42,13.06c5.7,4.28,10.79,9.27,14.53,15.27,5.5,8.83,5.4,19.42-1.26,27.38l-27.31,32.64c4.64,3.64,8.55,8.08,10.15,13.67,1.63,5.68.02,11.32-3.9,15.12-3.87,3.75-9.67,5.11-15.32,3.36-11.91-3.7-23.36-8.32-34.52-13.96-7.02-3.55-9.79-11.86-9.16-18.8.76-8.4,8.03-11.95,14.22-15.85,6.24-7.6,10.38-17.72,17.26-25.29ZM839.37,779.38l-8.47,11.82-16.92,26.14c-4.69,1.64-9.87,3.73-11.51,8.85-1.49,4.65.25,8.26,4.75,9.98l16.75,6.38,15.58,5.49c3.97,1.4,7.51-.98,9.23-3.84,1.91-3.17.92-7.32-2.25-9.5l-14.06-9.67,18.85-21.78,16.36-21.03c2.83-3.63,3.79-9.93,1.35-13.96-2.38-3.93-5.94-7.16-9.66-9.87l-32.28-23.6,1.02-1.78,4.56,2,22.92-37.4,1.44-.63c.34-.15.33,1.55.14,1.98l-4.53,9.7,10.45,13.93c3.51,4.68,9.59,5.02,14.32,1.29,8.71-6.86,15.81-15.18,23.24-23.79,8.14.45,15.76-6.37,15.02-14.93-.49-5.66-4.98-10.95-10.26-12.56-3.49-1.06-6.04,1.89-8.2,4.05-1.66.37-5.73.67-6.47,2.21-1.63,3.41-.57,6.65.38,10.09l-17.73,13.45c-4.86-12.6-10.34-24.61-20.2-32.38l3.1-6.33c4.65,2.34,9.31,3.16,13.83.59,3.37-1.92,6.03-6.19,5.8-11.44-4.89,1.27-10.12.5-10.81-4.88,4.59,2.14,9.04,3.27,12.62.16l1.13-4.6c2.93-.94,5.38-2.13,6.98-4.67.85-1.35.9-4.15.18-5.26-1.93-3-7.28-1.78-7.7-2.74l-1.25-2.82c-.67-5.76-2.75-10.88-7.17-14.5.37-6.09-.74-11.5-4.24-17.12l-3.9,9.62c-.23.57-1.66,1.8-2.16,1.45-2.66-1.89-4.61-8.66-9.32-12.92l-.82,12.7-14.53-7.55,4.67,11.68-8.92-.83c-3.7-.34-6.7-.16-11.11.97l8.92,5.41c1.19.72,2.51,2.65,2.95,4.13-5.91,2.97-10.75,5.35-15.6,10,5.36-.35,9.17-1.3,13.3.56-2.38,4.53-3.47,8.39-1.47,12.9,1.32,2.98,4.2,6.21,7.97,7.79l-4.13,8.23c-18.59-5.44-35.27-1.11-53.85,3.88-5.52,1.48-8.8,4.85-10.15,10.56-2.63,11.12-3.77,22.65-4.48,34.16-2.25,1.99-4.32,4.61-5.2,7.48-2.15,7.06,1.48,13.58,8.33,15.69,4.77,1.47,9.13-.17,12.04-4.46l3.86-5.69c3.03-4.47.25-9.95-3.65-13.16l6.57-23.47,23.18-1.89c1.26-.1,3.96,1.63,4.63,2.48-2.23,1.79-4.37,3.17-5.28,5.46l-11.2,28.28c-9.68,8.26-13.51,13.64-12.79,26.84l-20.31,29.15-27.8,7.13c-5.46-2.68-11.16-2.3-12.57,1.77l-10.79,31.18c-1.34,3.88.33,8.05,3.89,9.44,2.95,1.15,7.4.17,9.3-3.3l10.09-18.38,34.68-3.05c3.42-.3,5.93-2.33,8.07-4.83l25.52-29.7-6.36-4.5c-.47-.33-1.26-2.06-.73-2.16l1.73-.34,18.91,9.45,22.19,10.83ZM791.14,716.72l8.17-20.22-6.9.52-4.2,12.87,2.93,6.83Z"/>
    <path class="st6" d="M188.65,670.79c-22.12,6.07-44.82,2.58-63.47-9.69-17.18-11.3-26.55-29.82-26.49-50.29.03-12.86,3.06-25.08,10.74-35.22,8.5-11.22,24.3-14.18,35.12-4.9,9.15,7.85,8.17,21.48,18.79,25.96,4.48,1.89,9.66,1.53,13.56-1.06,3.84-2.55,6.13-7.24,6.09-12.49-.06-6.9-3.77-12.76-9.06-17.2-8.85-7.43-18.4-13.34-28.31-19.4-19.38-11.84-34.56-25.13-39.41-48.19-3.47-16.47-1.35-33,5.21-48.48,10.92-25.77,35.92-42.03,63.95-42.09,10.67-.02,20.6,1.62,30.02,6.47s17.43,11.66,22.03,21.33c6.52,13.71,6.64,29.65.97,43.52-4.06,9.94-13.15,16.4-23.85,15.43-8.46-.77-14.23-6.78-17.24-14.42-1.67-4.23-3.65-8.56-7.73-10.83-4.55-2.53-10.27-1.34-14.01,2.02-3.47,3.12-5.04,8.4-3.67,13.59,5.77,21.84,61.88,34.71,77.43,70.26,8.52,19.47,9.61,41.08,4,61.56-7.26,26.49-27.89,46.8-54.67,54.14Z"/>
    <path class="st7" d="M322.26,368.72c-12.95,35.65-50.73,55.14-86.82,44.67-34.76-10.08-48.46-49.48-35.24-81.74,2.76-6.74,7.23-12.31,13.44-15.74,11.57-6.39,25.28-.97,29.53,11.39,3.25,9.43,7.62,18.41,16.72,17.15,4.13-.57,7.88-3.66,9.37-8.16,2.36-7.14-.15-14.64-5.48-20.14-14.26-14.74-30.14-21.88-44.34-36.21-12.78-12.9-19.55-29.57-19.05-47.9.44-16.08,5.04-31.36,14.02-44.52,15.41-22.6,42.18-33.05,68.83-26.66,12.56,3.01,23.74,9.72,30.82,20.75,8.22,12.83,9.87,28.86,5.19,43.19-4.59,14.06-18.74,21.59-30.8,15.31-10.3-5.36-7.88-16.81-15.09-22.25-3.22-2.43-7.36-2.65-11.22-1.2-2.84,1.07-5.85,3.86-7.2,7.49-5.25,14.1,6.22,23.97,17.5,31.91,23.65,16.66,45.85,30.24,52.82,60.11,4.08,17.49,3.26,35.34-3,52.55Z"/>
    <path class="st7" d="M668.39,246.35c-1.41-6.57-3.07-15.56-7.57-14.71-9.44,1.76-3.44,41.3-.78,55.35l6.44,33.94c1.45,7.62,1.16,15.39-.53,22.67-3.53,15.27-23.08,20.84-36.53,15.88-17.03-6.28-15.42-26.12-12.53-43.77l7.86-48c6.38-38.95-4.79-70.58-4.05-95.33.43-14.33,10.12-24.89,24.12-27,7.34-1.11,15.25-1.82,21.53,3.04,4.31,3.34,6.43,9.35,7.62,14.7l5.72,25.67c1.2,5.39,4.88,12.73,9.4,12.75,6.29.02,12.36-17.12,14.26-25.69l5.41-24.38c2.16-9.75,9-16.32,18.59-18.44,7.68-1.69,15.86-2.06,22.63,2.75,8.84,6.29,8.14,23.67,6.5,35.47l-3.9,28.07c-3.04,21.9-3.2,43.38.09,65.25l5.78,38.39c1.02,6.76.95,13.44.4,20.17-.66,8.02-4.76,14.85-11.73,18.96-12.59,7.43-31.32,11.31-36.56-1.96-2.3-5.82-3.67-12.19-2.66-18.46l4.35-27.1,6.79-40.1c1.48-8.75,1.83-28.93-3.86-29.3-1.14-.07-3.57,1.24-3.92,2.39l-4.24,13.8-6.42,30.78c-1.75,8.4-4.26,19.13-11.27,20.89-6.19,1.56-11.87-4.32-13.18-10.45l-7.76-36.22Z"/>
    <path class="st7" d="M513.93,275.22c-1.66-8.21-3.71-22.11-8.75-22.78-4.33-.57-5.75,8.2-5.69,15.29.14,14.93,2.32,29.36,5,44.12l5.28,29.15c2.43,13.42,1.14,31.61-11.34,37.71-8,3.91-17.16,4.74-25.54,2.03-21.21-6.87-13.03-38.53-10.06-57.67l5.99-38.73c4.8-31-2.88-60.55-3.53-86.66-.21-8.47,1.75-17.48,8.17-23.26,7.13-6.41,17.54-8.38,26.86-7.43,12.14,1.24,15.34,12.16,17.52,23.18,2.11,10.63,5.23,27.47,12.32,32.29,6.27,4.27,13.64-11.92,15.49-20.6l5.12-23.92c1.53-7.16,4.25-14.02,10.49-18.07,6.63-4.3,14.84-5.75,22.56-4.64,16.71,2.41,17.72,20.23,15.8,36.21l-3.97,33.19c-2.07,17.29-2.31,34.11.11,51.29l5.82,41.25c2.35,16.64,4.86,35.75-9.43,44.74-13.3,8.38-33.7,12.88-38.73-1.43-2.24-6.39-3.06-13.27-1.74-20.15l7.35-38.27c2.67-13.91,9.43-54.4.65-56.57-1.09-.27-3.75.92-4.1,2.01l-4.05,12.43-8.85,41.19c-.83,3.85-2.72,7.64-5.14,10.64-3.21,3.99-9.97,4.39-13.31.35-2.29-2.77-4.17-6.62-4.89-10.18l-5.41-26.68Z"/>
    <path class="st4" d="M422.28,851.37c-15.28,6.65-31,10.45-47.24,11.17-7.88.35-14.23-4.75-14.64-12.85l-6.92-138.65-1.37-38.23c-.3-8.32,4.42-15.61,12.33-18.84,25.8-10.53,57.29-13.17,82.02,1.08,16.79,9.67,27.76,25.37,33.17,44.08,8.99,31.06,7.2,64.5-4.49,94.69-9.88,25.52-27.26,46.42-52.87,57.57ZM436.43,756.15c2.28-16.71,1.87-38.57-10.21-50.22-7.41-7.15-22.31-9.4-22.1-2.35l2.62,89.28c.04,1.27.54,2.88,1.27,3.33.61.37,2.52.52,3.21.31,15.01-4.78,23.1-24.81,25.21-40.34Z"/>
    <path class="st6" d="M305.27,649.21c-8.74,5.13-18.71,6.9-28.56,6.06-8.56-.73-15.38-6.62-17.25-15.02-2-8.99-2.3-17.94-1.52-27.19l2.99-35.33,2.81-39.15c1.46-20.26-2.27-39.74-6.59-59.5-3.54-16.18-.45-31.79,13.08-41.83,18.98-14.09,43.56-19.08,66.62-14.37,20.32,4.16,35.52,17.83,41.25,37.71,7.21,25.04,5.67,48.51-6.07,71.92s-33.68,38.16-59.01,41.1c-.9.1-2.05.47-2.4.9s-.66,2.04-.56,2.59l4.56,25.32c3.17,17.6,6.57,37.42-9.36,46.77ZM332.77,507.48c4.26-8.03,5.65-17.11,3.09-25.71-2.8-9.42-11.2-14.32-20.79-13.78-4.64.26-7.74,2.67-8.1,7.79-.97,13.94-.71,27.89.47,41.91.68,8,18.33,2.98,25.33-10.21Z"/>
    <path class="st7" d="M427.86,375.36c-17.98,21.65-45.82,27.7-65.83,8.45-17.93-17.25-25.31-46.5-27.35-71.23-1.7-20.62.18-40.51,4.57-60.72,5.44-25.01,19.52-58.73,42.61-70.36,18.77-9.46,38.05-.76,49.82,16.22,6.54,9.44,11.03,19.53,14.23,30.71,13.06,45.63,13.08,109.42-18.06,146.93ZM410.29,280.24c4.06-17.42,3.8-43.99-6.19-57.87-3.62-5.03-10.29-6.19-15.14-2.33-4.4,3.5-7.27,8.37-9.3,13.82-5.69,15.23-6.56,31.85-2.72,47.68,2.02,8.32,7.25,17.67,14.89,18.25,10.24.77,16.01-9,18.47-19.55Z"/>
    <path class="st6" d="M441.47,557.44c2.95,7.93,16.98,1.29,25.49-2.59l15.31-6.98c7.54-3.43,15.39.72,18.15,8.68,3.89,11.22,3.82,23.9-.3,35.27-2.01,5.54-6.54,9.55-11.5,12.43-19.78,11.5-54.44,19.53-76.8,17.58-11.04-.96-18.67-8.18-20.22-18.94-1.15-8.01-.55-15.92.17-24.2l4.04-46.33c3.21-36.76-5.64-67.5-4.2-89.88.73-11.37,6.53-20.5,16.53-25.63,17.83-9.14,42.5-12.93,62.8-14.15,6.76-.41,13.55.23,19.83,2.62,11.5,4.38,10.48,27.75,4.39,41.74-3.24,7.44-10.6,11.08-18.7,10.5l-21.66-1.55c-3.88-.28-9.15.83-11.45,4.34-4.56,6.97-5.28,16.74-2.01,24.28,2.07,4.77,7.91,4.71,11.98,2.89,5.86-2.62,11.52-5.07,17.87-5.1,6.99-.04,13.25,4.16,14.46,11.07,1.4,7.99.74,16.18-1.57,23.86-3.65,12.1-17.82,11.44-29.97,11.22-5.03-.09-10.31,1.51-12.32,6.36-2.9,7.01-3.09,15.05-.31,22.51Z"/>
    <path class="st7" d="M833.23,264.42c-4.77.22-9.67,1.12-12.65,4.66-2.23,2.66-3.34,7.12-3.28,10.72l.39,22.28c.11,6.55.77,13.02-.52,19.42-1.63,8.06-6.73,14.44-14.38,17.22-12.77,4.65-31.5,2.48-35-11.12-1.53-5.95-1.87-12.23-.81-18.7,3.29-20.07,8.5-39.23,13.34-58.94l5.95-24.25c6.04-24.63,10.71-49.02,14.59-74.11,2.12-13.67,7.1-25.15,20.16-30.16,6.41-2.46,13.19-3.49,20.06-3.02,10.29.72,18.3,7.57,20.86,17.57,1.67,6.53,2.52,13.13,3.04,20.03,1.74,22.75,5.44,44.42,11.06,66.59l14.35,56.62c1.92,7.56,3,15.2,2.88,22.81-.29,18.41-21.73,29.14-38.56,28.06-6.76-.44-11.31-5.39-12.63-11.71-4.38-20.97,7.35-54.71-8.84-53.97ZM840.15,218.57l-5.67-37.41c-.27-1.77-2.09-4.6-3.77-4.69-1.81-.09-3.83,2.54-4.27,4.34-3.23,13.33-5.91,26.44-7.4,40.02-.42,3.85,1.96,7.1,5.91,7.08,8.22-.04,16.29-2.18,15.2-9.35Z"/>
    <path class="st4" d="M538.41,795.37c-1.45.5-2.73,3.25-2.99,4.83l-3.72,22.51c-.83,5-4.53,8.77-9.32,10.44-8.93,3.12-18.33,4.95-27.85,4.99-6.75.03-11.92-5.56-11.68-12.2l2.88-20.6,21.9-104.84,9.05-44.04c2.02-9.84,7.66-17.76,17.55-21.02l23.84-5.13c7.87-1.69,14.92,3.93,16.87,11.5l6.74,26.13,25.99,103.93,6.21,26.8c1.98,8.54-2.97,16.76-11.49,19.58-8.05,2.67-16.35,4.76-24.87,5.46-4.93.4-10.57-2.56-11.53-7.2l-4.53-21.84c-.42-2.04-2.66-4-4.95-3.68-6.41.89-11.89,2.24-18.07,4.38ZM553.23,748.18c2.32-.47,4.12-3.68,3.71-5.88l-7.7-41.27c-.18-.98-2.01-2.53-2.92-2.58s-2.57,1.6-2.74,2.61l-4.76,27.17c-1.17,6.65-1.79,12.95-1.35,19.82.08,1.27,3.41,2.63,4.77,2.35l11-2.22Z"/>
    <path class="st6" d="M584.61,522.78c10.07-6.8,10.61-18.79,22.13-23.05,9.1-3.37,18.55.42,22.45,9.32,2.45,5.59,3.46,11.75,3.11,18.13-1.63,30.23-15.88,59.43-44.29,71.85-19.25,8.42-41.03,3.84-55.3-11.6-14.63-15.83-21.38-40.5-23.13-62.13-2.44-30.18,2.19-60.38,14.37-88.02,11.03-25.03,29.54-47.62,57.87-49.69,15.4-1.13,29.98,5.79,37.38,19.28,9.64,17.58,5.64,43.29-12.74,49.92-5.47,1.97-11.83,1.5-16.14-2.36-6.52-5.84-1.12-17.98-8.74-22.62-4.01-2.44-9.54-1.08-12.83,2.27-21.57,21.97-21.52,76.28-1.02,89.27,4.94,3.13,11.84,2.84,16.89-.57Z"/>
    <path class="st6" d="M776.08,513.46c-.11-5.61-4.25-7.34-8.88-7.15-9.46.39-16,6.79-16.03,16.58l-.07,24.45c-1,13.71-10.86,23.73-24.26,25.59-5.88.81-11.66,1-17.02-1.92-8.04-4.39-8.2-17.93-5.96-27.2l13.37-55.29c7.92-32.75,14.89-64.96,20.65-97.99,2.04-11.68,10.02-20.15,20.86-23.52,6.69-2.07,13.18-3.29,20.13-2.52,8.1.9,14.39,6.7,15.84,14.98l9.22,52.74,16.56,72.29c2.27,9.9,4.55,19.26,5,29.32.25,5.67-2.05,10.52-6.15,14.21-12.66,11.4-36.33,17.34-41.19,1.64-1.65-5.32-1.6-10.86-1.71-16.56l-.37-19.64ZM774.83,461.43c-1.47-13.99-3.33-27.09-6.69-40.61-.22-.87-1.94-2.44-2.82-2.43-.75,0-2.44,1.25-2.66,2.01l-2.46,8.56-5.41,34.63c-.52,3.35,2.4,6.23,5.57,6.14,7.57-.2,15.15-1.71,14.46-8.3Z"/>
    <path class="st4" d="M632.24,784.29l2.53-55.47c.18-4.04-2.61-8.44-4.34-12.09l-34.78-73.32c-3.85-8.13-1.69-16.74,6.16-20.98,8.87-4.79,18.43-7.89,28.57-9.06,6.41-.74,11.32,2.92,13.39,8.94l12.99,41.29c.88.49,2.29,1.08,2.86.71s1.66-1.7,1.89-2.41l14.03-43.16c2.39-7.36,7.75-12.46,15.09-14.39,11.27-2.97,27.11-5.37,33.32,3.22,3.05,4.22,3.34,8.6,1.64,13.13l-3.53,9.35-40.01,97.09c-2.15,5.23-1.24,11.8-1.56,17.25l-3.09,52.92c-.31,5.26-3.39,10.85-8.34,12.75-8.08,3.11-16.52,4.48-25.14,5.03-6.27.4-11.62-3.69-12.19-10.19l.52-20.6Z"/>
    <path class="st6" d="M930.99,512.72c-1.86,8.34-7.19,14.44-14.87,17.88-16.47,7.37-33.78,12.39-51.7,15.46-12.8,2.19-25.74,1.04-28.43-11.64-1.42-6.7-2.2-13.71-1.64-20.74l3.42-42.77c1.81-22.65,1.4-44.42-1.32-67.01-1.1-9.13-1.83-17.88-1.45-26.87s5.53-16.46,13.49-20.41c6.88-3.42,14.03-5.34,21.74-4.43,18.91,2.23,13.73,25.11,11.02,43.08-2.7,17.93-4.72,35.45-4.45,53.54.17,11.01.12,32.17,5.17,35.68,6.21,4.32,22.77-5.84,31.01-11.8,2.77-2.01,6.77-3.99,10.19-3.62,14.29,1.56,11.14,28.79,7.82,43.65Z"/>
    <path class="st1" d="M187.21,841.89c-13.11-3.98-34.17-10.32-38.59-21.29-3.26-8.08.99-15.85,6.61-21.47-1.46-11.63.46-23.67,11.39-27.94,4.08,5.56,9.05,10.15,15.37,12.94,11.49,5.07,21.88.46,30.25-9.53l9.64,12.39,14.23,18.19-18.18,23.65,12.46,7.8,15.3-20.55c7.47,7.81,14.7,13.95,24.19,17.57,1.79.68,3.77.88,4.57-1.16-7.45-3.15-13.95-6.45-19.67-12-12.67-12.3-23.36-25.85-33.58-40.29-2.18-3.08-4.57-6.92-7.82-8.43l-9.52-4.44c11.97-6.92,25.18-12.93,33.62-1.52-2.94,1.69-5.4,3.58-6.71,6.39-1.15,2.45-.51,5.72.98,7.54,3.93,4.79,9.53,3.12,15.39-.83l4.29,5.25c-2.29,1.91-4.38,3.69-5.48,6.04-1.68,3.56-.17,7.45,2.52,9.31,7.1,4.89,10.14-4.86,13.38,1.28,1.48,2.81-6.87,6.69-2.77,13.65,1.56,2.65,5.98,4.95,9.3,2.77,6.71-4.4,13.46-8.66,21.24-10.94l13.37,10.1,16.81,10.21c6.29,3.82,10.67,12.06,8.69,19.42-5.43,3.42-11.7,6.57-15.91,11.74l-16.8,20.64c-27.24,4.14-53.98-6.14-76.13-21.13-10.25-6.93-20.59-11.75-32.45-15.35Z"/>
    <path class="st6" d="M693.85,555.44c-.66,18.79-17.31,30.35-35.6,28.32-7.21-.8-12.42-6.09-13.82-13.13-1.11-5.61-1.73-11.49-1.15-17.4l4.25-43.34c3.5-26.33,3.66-52.17.26-78.5l-2.07-27.44c.1-10.82,6.48-19.4,16.35-23.04,6.42-2.37,12.93-3.74,19.66-2.35,12.04,2.49,14.24,13.97,12.65,26.09l-3.75,28.62c-2.32,17.69-3.34,34.89-2.28,52.82l3.77,38.61c1.01,10.36,2.1,20.37,1.73,30.76Z"/>
    <path class="st0" d="M144.54,750.3c-13.26-2.57-24.39,1.92-38.76-3.26-10.52-3.79-22.55-13.37-15.54-20.84,10.25,2,20.28,2.04,30.38,1.23,6.57,4.76,18.47,11.04,23.81,9.69.49-.12-.36-1.84-.62-2-10.83-2.44-19.37-7.91-27.05-15.81-1.3,2.08-.26,3.15,1.24,4.89-20.27,1.62-43.45-6.39-55.74-23.47-2.5-3.48-3.22-8.57-1.13-10.49,2.73-2.52,9.45,4.28,15.34,3.05-8.58-6.62-16.23-12.72-21.43-21.9-3.13-5.51-5.8-13.24-2.99-15.49.76-.61,3.1-.43,4.07.19,13.64,8.75,27.11,16.55,42.21,22.78,19.9,8.21,40.07,13.74,60.91,18.92,7.64,1.9,14.78,3.93,21.35,7.82,10.35,6.12,14.07,17.58,10.19,28.88-1.38,4.01-3.31,8.63-3.21,12.99.29,12.77,9.27,22.44,21.68,25.64-6.97,8.94-16.49,12.83-26.72,7.69-6.37-3.2-11.59-7.66-15.39-13.69-14.92,5.44-35.98,7.27-46.65-4.27-1.7-1.84-2.46-4.68-2.11-6.99,9.33-.97,17.55-1.89,26.16-5.54Z"/>
    <path class="st4" d="M147.01,348.41c-22.8,7.8-47.44,1.41-65.01-13.77-25.57-22.1-31.82-56.95-17.45-87.13,12.88-27.05,40.74-44.62,71.32-40.19,24.54,3.55,44.96,20.87,54.44,43.34,16.47,39-2.84,83.91-43.31,97.75ZM175.06,305.2c13.63-27.04,4.09-60.37-22.04-75.38-24.3-13.95-54.9-5.99-70.58,16.78-14.39,20.89-14.05,47.74,1.66,67.93,11.65,14.97,29.77,22.67,48.84,20.58,17.65-1.93,33.55-12.92,42.12-29.91Z"/>
    <path class="st4" d="M94.6,190.12c-1.83.31-2.99-1.17-3.24-2.72l-1.77-10.97c-.41-2.52.89-5.21,3.71-5.79,12.77-2.62,25.21-4.87,38.15-6.62,2.58-.35,4.76,1.51,5.01,3.95l1.55,14.84-43.41,7.31Z"/>
    <path class="st1" d="M240.57,763.52c-4.47-5.34-10.32-8.7-17.66-7.94-3.05-12.46.03-22.25,12.12-26.24,5.63-1.86,10.66.85,13.49,5.8l8.78,20.82-16.74,7.57Z"/>
    <path class="st3" d="M241.51,778.07c-2.43,1.67-5.44,1.36-6.75-.67-1.17-1.82-.63-4.93,1.55-6.47,8.33-5.85,26.64-15.75,32.34-10.04,1.36,1.36,2.04,3.82,1.64,6.17-10.77.73-19.91,4.91-28.78,11.01Z"/>
    <path class="st5" d="M329.54,849.47c4.1,15.49-13.07,24.73-28.24,27.51l8.15-11.09c5.21-7.08,11.3-13.09,20.08-16.42Z"/>
    <path class="st3" d="M256.19,795.86c-1.79,1.25-4.69,1.61-5.9.17-1.95-2.31-1.01-5.8,1.37-7.46,10.55-7.37,30.02-16.28,29.2-2.72-9.17,1.26-16.87,4.58-24.66,10.01Z"/>
    <path class="st3" d="M267.23,813.66c-1.9,1.34-4.59-.08-5.17-1.71-.53-1.49,0-4.31,1.53-5.47,6.81-5.11,14.16-8.72,22.45-11.4,1.24-.4,4.23.56,5.24,1.3,1.2.88,1.75,2.89,1.64,5.24-9.5,2.28-17.45,6.19-25.69,12.03Z"/>
    <polygon class="st1" points="253.97 782.54 249.64 776.99 265.9 770.96 268.93 775.68 253.97 782.54"/>
    <path class="st1" d="M265.73,800.19c-1.14-.75-2.55-2.43-3.71-4.12l13.69-5.68c1.24-.51,3.93,1.89,3.34,2.97l-13.33,6.82Z"/>
    <path class="st7" d="M164.19,211.37l-3.37-1.95,2.61-4.89-1.61-2.72c-.35-.59,1.35-2.59,2.02-2.45,4.15.85,8.97,4.1,7.42,6.51-.57.88-2.35.84-4.01.26l-3.07,5.25Z"/>
    <path class="st2" d="M839.37,779.38l-22.19-10.83-18.91-9.45-1.73.34c-.53.1.26,1.83.73,2.16l6.36,4.5-25.52,29.7c-2.14,2.49-4.65,4.53-8.07,4.83l-34.68,3.05-10.09,18.38c-1.9,3.46-6.34,4.45-9.3,3.3-3.57-1.39-5.24-5.56-3.89-9.44l10.79-31.18c1.41-4.07,7.11-4.45,12.57-1.77l27.8-7.13,20.31-29.15c-.73-13.2,3.11-18.57,12.79-26.84l11.2-28.28c.91-2.29,3.04-3.67,5.28-5.46-.67-.85-3.37-2.58-4.63-2.48l-23.18,1.89-6.57,23.47c3.91,3.21,6.69,8.69,3.65,13.16l-3.86,5.69c-2.91,4.29-7.27,5.93-12.04,4.46-6.85-2.11-10.48-8.63-8.33-15.69.87-2.87,2.95-5.49,5.2-7.48.71-11.5,1.85-23.03,4.48-34.16,1.35-5.71,4.63-9.08,10.15-10.56,18.58-4.99,35.26-9.31,53.85-3.88l4.13-8.23c-3.77-1.58-6.65-4.81-7.97-7.79-1.99-4.51-.91-8.37,1.47-12.9-4.13-1.86-7.94-.9-13.3-.56,4.84-4.65,9.68-7.03,15.6-10-.43-1.47-1.76-3.41-2.95-4.13l-8.92-5.41c4.4-1.13,7.4-1.31,11.11-.97l8.92.83-4.67-11.68,14.53,7.55.82-12.7c4.71,4.26,6.66,11.04,9.32,12.92.5.35,1.93-.88,2.16-1.45l3.9-9.62c3.49,5.62,4.61,11.04,4.24,17.12,4.43,3.62,6.5,8.74,7.17,14.5l1.25,2.82c.42.95,5.77-.26,7.7,2.74.72,1.11.67,3.92-.18,5.26-1.6,2.54-4.06,3.73-6.98,4.67l-1.13,4.6c-3.58,3.12-8.04,1.98-12.62-.16.69,5.38,5.92,6.15,10.81,4.88.23,5.25-2.43,9.52-5.8,11.44-4.52,2.58-9.18,1.75-13.83-.59l-3.1,6.33c9.86,7.77,15.34,19.79,20.2,32.38l17.73-13.45c-.94-3.44-2.01-6.68-.38-10.09.74-1.54,4.81-1.84,6.47-2.21,2.15-2.16,4.7-5.11,8.2-4.05,5.28,1.61,9.78,6.9,10.26,12.56.74,8.56-6.88,15.38-15.02,14.93-7.43,8.61-14.53,16.94-23.24,23.79-4.73,3.72-10.81,3.38-14.32-1.29l-10.45-13.93,4.53-9.7c.2-.42.2-2.13-.14-1.98l-1.44.63-22.92,37.4-4.56-2-1.02,1.78,32.28,23.6c3.71,2.71,7.27,5.94,9.66,9.87,2.44,4.03,1.48,10.33-1.35,13.96l-16.36,21.03-18.85,21.78,14.06,9.67c3.17,2.18,4.16,6.33,2.25,9.5-1.72,2.86-5.25,5.24-9.23,3.84l-15.58-5.49-16.75-6.38c-4.49-1.71-6.23-5.32-4.75-9.98,1.64-5.13,6.82-7.21,11.51-8.85l16.92-26.14,8.47-11.82ZM869.26,629.96c-.17-2.36-1.93-3.74-3.8-3.38-1.16.22-2.45,2.06-2.52,3.6-.1,2.13,1.42,4.11,3.22,4.15s3.27-2.04,3.1-4.37Z"/>
    <path d="M436.43,756.15c-2.12,15.53-10.21,35.56-25.21,40.34-.69.22-2.6.06-3.21-.31-.73-.44-1.23-2.05-1.27-3.33l-2.62-89.28c-.21-7.05,14.69-4.8,22.1,2.35,12.08,11.65,12.48,33.52,10.21,50.22ZM428.97,726.76c-.59-.48-1.78-.86-2.65-.9l.95,38.4c3.93-12.25,4.08-24.42,1.7-37.5Z"/>
    <path d="M332.77,507.48c-7,13.18-24.65,18.21-25.33,10.21-1.18-14.01-1.44-27.96-.47-41.91.36-5.12,3.46-7.53,8.1-7.79,9.6-.54,17.99,4.36,20.79,13.78,2.56,8.6,1.17,17.68-3.09,25.71Z"/>
    <path d="M410.29,280.24c-2.46,10.55-8.23,20.32-18.47,19.55-7.64-.57-12.87-9.93-14.89-18.25-3.84-15.83-2.97-32.45,2.72-47.68,2.04-5.45,4.9-10.32,9.3-13.82,4.85-3.86,11.52-2.7,15.14,2.33,9.99,13.88,10.25,40.46,6.19,57.87ZM398.69,289.3c3.34-4.11,3.93-7.94,5.09-12.1,1.56-9.59,2.35-18.84.94-29.16-6.97,10.98-8.03,28.19-6.03,41.26Z"/>
    <path d="M840.15,218.57c1.09,7.17-6.99,9.31-15.2,9.35-3.94.02-6.33-3.23-5.91-7.08,1.49-13.58,4.17-26.68,7.4-40.02.44-1.81,2.46-4.44,4.27-4.34,1.68.09,3.5,2.92,3.77,4.69l5.67,37.41Z"/>
    <path d="M553.23,748.18l-11,2.22c-1.36.27-4.69-1.08-4.77-2.35-.44-6.87.19-13.17,1.35-19.82l4.76-27.17c.18-1.02,1.84-2.67,2.74-2.61s2.74,1.6,2.92,2.58l7.7,41.27c.41,2.2-1.4,5.41-3.71,5.88Z"/>
    <path d="M774.83,461.43c.69,6.59-6.88,8.11-14.46,8.3-3.17.08-6.1-2.79-5.57-6.14l5.41-34.63,2.46-8.56c.22-.76,1.91-2,2.66-2.01.88,0,2.6,1.57,2.82,2.43,3.36,13.52,5.22,26.62,6.69,40.61Z"/>
    <path d="M175.06,305.2c-8.57,16.99-24.47,27.98-42.12,29.91-19.08,2.09-37.2-5.61-48.84-20.58-15.71-20.19-16.05-47.04-1.66-67.93,15.68-22.77,46.28-30.73,70.58-16.78,26.13,15,35.68,48.34,22.04,75.38ZM147.05,326.31c18.54-8.29,29.35-27.36,29.54-46.85.2-19.71-10.87-38.66-28.8-47.23-20.32-9.72-43.42-4.54-57.83,12.28-14.76,17.22-17.42,41.38-6.13,61.07,12.71,22.17,39.18,31.48,63.22,20.73Z"/>
    <path d="M869.26,629.96c.17,2.32-1.38,4.41-3.1,4.37s-3.32-2.03-3.22-4.15c.07-1.54,1.37-3.38,2.52-3.6,1.87-.35,3.63,1.02,3.8,3.38Z"/>
    <path class="st6" d="M147.05,326.31c-24.03,10.75-50.5,1.44-63.22-20.73-11.29-19.69-8.63-43.85,6.13-61.07,14.41-16.82,37.51-22,57.83-12.28,17.93,8.57,29,27.52,28.8,47.23-.2,19.49-11.01,38.56-29.54,46.85ZM134.54,276.09l4-5.8c-1.51.57-2.19,1.11-2.73.94l-2.91-.94,3.84-6.03,3.64,3.57,7.59-12.01c-2.17-1.2-2.66-1.6-3.95-3.04l-14.38,19.45-5.27-35.26c-.15-.98-1.06-2.4-1.75-2.84s-3.14.09-3.56.89c-.79,1.51-.53,5.03-.29,7.01l2.55,20.63,1.36,10.89c-2.43,2.32-3.04,5.04-2.62,8.75.3,2.62,3.05,5.03,5.28,5.65,2.58.71,5.99-.13,7.37-1.35l-2.51-5.79,4.31-1.92-.86,6.41c2.78-2.27,2.86-6.49.88-9.23ZM151.15,251.73l4.16-4.88c.62-.73.3-3-.46-3.53s-2.97-.45-3.58.37l-3.34,4.49,3.22,3.54ZM97.08,258.13c.48.36,2.52-1.38,2.3-1.92s-.77-1.88-1.23-2.23l-4.24-3.31c-.52-.41-2.13-.46-2.72-.16s-1.1,2.41-.54,2.83l6.43,4.78ZM168.83,276.8c.97-.11,2.37-1.59,2.34-2.5-.02-.76-1.7-2.19-2.51-2.08l-6.63.92c-.82.11-2.09,1.85-1.94,2.61s1.72,1.82,2.62,1.72l6.13-.67ZM85.44,285.91l8.59-1.43c.93-.16.7-3.69-.3-3.6l-9.68.88-.66,2.79c-.1.44,1.59,1.44,2.05,1.36ZM161.19,305.4c.7.52,2.66.01,3.03-.76.31-.65-.28-2.56-.89-2.96l-4.1-2.66c-.63-.41-2.39-.18-2.84.35s-.14,2.39.41,2.8l4.39,3.23ZM98.3,312.42l4.66-5.56c.36-.42-.08-2.57-.63-2.71s-2.13,0-2.5.4l-5.52,6.07c-.45.5.55,2.43,1.18,2.67s2.34-.28,2.83-.86ZM134.32,323.55l-.93-9.76c-.08-.82-2.54-1.76-3.1-1.21-.45.44-1.1,1.73-1.07,2.39l.44,7.64c.05.9,1.22,2.41,1.99,2.72.65.26,2.73-1.01,2.65-1.77Z"/>
    <path d="M134.32,323.55c.07.77-2.01,2.03-2.65,1.77-.78-.31-1.94-1.82-1.99-2.72l-.44-7.64c-.04-.65.61-1.95,1.07-2.39.56-.55,3.02.4,3.1,1.21l.93,9.76Z"/>
    <path d="M85.44,285.91c-.46.08-2.16-.92-2.05-1.36l.66-2.79,9.68-.88c1-.09,1.23,3.45.3,3.6l-8.59,1.43Z"/>
    <path d="M98.3,312.42c-.49.58-2.2,1.1-2.83.86s-1.63-2.17-1.18-2.67l5.52-6.07c.37-.41,1.95-.54,2.5-.4s.99,2.29.63,2.71l-4.66,5.56Z"/>
    <path d="M168.83,276.8l-6.13.67c-.9.1-2.47-.96-2.62-1.72s1.12-2.5,1.94-2.61l6.63-.92c.82-.11,2.49,1.32,2.51,2.08.02.91-1.38,2.39-2.34,2.5Z"/>
    <path d="M154.85,243.32c-.76-.53-2.97-.45-3.58.37l-2.73,3.67h0l-18.9,24.88-5.27-35.26c-.15-.98-1.06-2.4-1.75-2.84-.69-.43-3.14.09-3.56.89-.79,1.51-.53,5.03-.29,7.01l2.55,20.63,1.36,10.89c-2.43,2.32-3.04,5.04-2.62,8.75.3,2.62,3.05,5.03,5.28,5.65,2.58.71,5.99-.13,7.37-1.35l.94-1.29c2.78-2.27,2.86-6.49.88-9.23l4-5.8,1.85-2.46,11.66-17.15,3.26-3.83c.62-.73.31-3-.46-3.53Z"/>
    <path d="M97.08,258.13l-6.43-4.78c-.56-.42-.05-2.52.54-2.83s2.2-.25,2.72.16l4.24,3.31c.45.35,1.01,1.7,1.23,2.23s-1.81,2.28-2.3,1.92Z"/>
    <path d="M161.19,305.4l-4.39-3.23c-.55-.41-.86-2.27-.41-2.8s2.21-.76,2.84-.35l4.1,2.66c.61.4,1.2,2.31.89,2.96-.37.78-2.33,1.28-3.03.76Z"/>
  </g>
  <path class="st5" d="M155.23,799.13s73.52,59.64,150.01,67.63l-9.45,11.61c-14.28,1.64-25.98.17-33.7-1.39-4.99-1.01-15.42-3.48-27.5-9.53-13.92-6.98-13.06-10.2-26.51-17.09-7.92-4.06-15.58-6.54-30.9-11.5-14.59-4.73-20.55-5.82-25.31-12.16-1.24-1.65-5.78-7.7-4.39-15.56,1.23-6.93,6.3-10.94,7.74-12Z"/>
</svg>