<?xml version="1.0" encoding="UTF-8"?>
<svg id="Camada_2" data-name="Camada 2" xmlns="http://www.w3.org/2000/svg" viewBox="0 0 3579.74 935.18">
  <defs>
    <style>
      .cls-1 {
        fill: #fff;
      }

      .cls-2 {
        fill: #df271d;
      }
    </style>
  </defs>
  <g id="Camada_1-2" data-name="Camada 1">
    <g>
      <g>
        <path class="cls-1" d="M0,921.28V149.91h308.08v108.87H122.77v213.11h128.56v101.92H122.77v235.12h185.31v112.34H0Z"/>
        <path class="cls-1" d="M595.29,921.28h-119.3L337.01,149.91h126.25l75.28,539.72,79.92-539.72h118.14l-141.3,771.37Z"/>
        <path class="cls-1" d="M950.84,935.18c-111.19,0-184.16-75.29-184.16-183v-433.17c0-106.55,72.97-182.99,184.16-182.99s184.15,76.44,184.15,182.99v433.17c0,107.71-72.96,183-184.15,183ZM1011.06,309.74c0-37.06-22.01-62.54-60.22-62.54s-60.23,25.48-60.23,62.54v451.7c0,37.06,22.01,62.54,60.23,62.54s60.22-25.48,60.22-62.54v-451.7Z"/>
        <path class="cls-1" d="M1213.71,921.28V149.91h122.77v660.18h177.21v111.19h-299.98Z"/>
        <path class="cls-1" d="M1743,921.28h-119.3l-138.98-771.37h126.25l75.28,539.72,79.92-539.72h118.14l-141.3,771.37Z"/>
        <path class="cls-1" d="M1931.75,921.28V149.91h308.08v108.87h-185.31v213.11h128.56v101.92h-128.56v235.12h185.31v112.34h-308.08Z"/>
      </g>
      <polygon class="cls-2" points="3235.19 344.55 2890.64 344.55 2890.64 229.7 2546.09 574.25 2890.64 574.25 2890.64 689.1 3235.19 344.55"/>
      <polygon class="cls-2" points="3579.74 0 3120.34 0 2890.64 229.7 3350.04 229.7 3579.74 0"/>
      <polygon class="cls-2" points="3350.04 689.1 2890.64 689.1 2660.94 918.8 3120.34 918.8 3350.04 689.1"/>
    </g>
  </g>
</svg>