<svg xmlns="http://www.w3.org/2000/svg" version="1.1" xmlns:xlink="http://www.w3.org/1999/xlink" width="1000" height="1000"><style>
    #light-icon {
      display: inline;
    }
    #dark-icon {
      display: none;
    }

    @media (prefers-color-scheme: dark) {
      #light-icon {
        display: none;
      }
      #dark-icon {
        display: inline;
      }
    }
  </style><g id="light-icon"><svg xmlns="http://www.w3.org/2000/svg" version="1.1" xmlns:xlink="http://www.w3.org/1999/xlink" width="1000" height="1000"><g><g transform="matrix(10.526315789473685,0,0,10.526315789473685,-5.684341886080802e-14,268.42105263157896)"><svg xmlns="http://www.w3.org/2000/svg" width="95" height="44" viewBox="0 0 95 44" fill="none"><g clip-path="url(#clip0_107_130)">
<path d="M94.3276 22.8757L94.9979 21.1395C72.8583 20.3697 46.6526 19.3686 42.8284 19.0681C40.2174 18.8065 38.9108 16.7027 39.5726 14.2508C40.0455 12.4238 42.4508 5.4573 44.3534 0H40.0434C37.5363 5.69514 34.9062 11.6995 33.6697 14.1881C32.2337 16.9492 29.7139 18.733 26.7253 18.733C24.3094 18.733 22.7462 16.5276 23.391 13.9784C24.3921 10.72 26.1866 5.48757 28.0807 0H23.7707C21.2657 5.69081 18.6547 11.6432 17.3821 14.2249C15.8888 17.4054 13.702 18.947 10.1747 19.3232C9.02297 19.4573 4.71511 19.9459 1.44232 20.16L0 23.8443C2.86767 24.1232 5.6717 24.3503 8.05577 24.6573C10.6626 25.0184 12.0731 27.1913 11.3137 29.6886C10.6095 32.173 8.3209 38.7308 6.51164 44H10.8238L17.1912 29.8249C18.4383 27.0465 21.1618 25.2649 24.161 25.2649C26.5684 25.2649 28.2461 27.5092 27.4825 30C26.9374 31.9286 24.4261 39.3297 22.7844 44.0022H27.0965C29.5951 38.3913 32.5815 31.613 33.5212 29.6973C34.7853 26.8822 37.1927 25.2303 40.5376 24.9319C45.0046 24.5989 70.7033 23.6541 94.3298 22.88L94.3276 22.8757Z" fill="#2B135A"></path>
<path d="M56.5007 4.32004C55.472 4.01733 54.6809 3.21301 54.386 2.16436L53.7794 0.017334H53.4846L52.878 2.1622C52.581 3.21085 51.792 4.01733 50.7633 4.31787L48.6592 4.93625V5.23679L50.7633 5.85517C51.792 6.15787 52.5831 6.9622 52.878 8.01085L53.4846 10.1557H53.7794L54.386 8.01085C54.683 6.9622 55.472 6.15571 56.5007 5.85517L58.6048 5.23679V4.93625L56.5007 4.31787V4.32004Z" fill="#2B135A"></path>
</g><defs>
<clipPath id="clip0_107_130">
<rect width="95" height="44" fill="white"></rect>
</clipPath>
</defs></svg></g></g></svg></g><g id="dark-icon"><svg xmlns="http://www.w3.org/2000/svg" version="1.1" xmlns:xlink="http://www.w3.org/1999/xlink" width="1000" height="1000"><g clip-path="url(#SvgjsClipPath1016)"><rect width="1000" height="1000" fill="#ffffff"></rect><g transform="matrix(7.368421052631579,0,0,7.368421052631579,150,337.89473684210526)"><svg xmlns="http://www.w3.org/2000/svg" width="95" height="44" viewBox="0 0 95 44" fill="none"><g clip-path="url(#clip0_107_130)">
<path d="M94.3276 22.8757L94.9979 21.1395C72.8583 20.3697 46.6526 19.3686 42.8284 19.0681C40.2174 18.8065 38.9108 16.7027 39.5726 14.2508C40.0455 12.4238 42.4508 5.4573 44.3534 0H40.0434C37.5363 5.69514 34.9062 11.6995 33.6697 14.1881C32.2337 16.9492 29.7139 18.733 26.7253 18.733C24.3094 18.733 22.7462 16.5276 23.391 13.9784C24.3921 10.72 26.1866 5.48757 28.0807 0H23.7707C21.2657 5.69081 18.6547 11.6432 17.3821 14.2249C15.8888 17.4054 13.702 18.947 10.1747 19.3232C9.02297 19.4573 4.71511 19.9459 1.44232 20.16L0 23.8443C2.86767 24.1232 5.6717 24.3503 8.05577 24.6573C10.6626 25.0184 12.0731 27.1913 11.3137 29.6886C10.6095 32.173 8.3209 38.7308 6.51164 44H10.8238L17.1912 29.8249C18.4383 27.0465 21.1618 25.2649 24.161 25.2649C26.5684 25.2649 28.2461 27.5092 27.4825 30C26.9374 31.9286 24.4261 39.3297 22.7844 44.0022H27.0965C29.5951 38.3913 32.5815 31.613 33.5212 29.6973C34.7853 26.8822 37.1927 25.2303 40.5376 24.9319C45.0046 24.5989 70.7033 23.6541 94.3298 22.88L94.3276 22.8757Z" fill="#2B135A"></path>
<path d="M56.5007 4.32004C55.472 4.01733 54.6809 3.21301 54.386 2.16436L53.7794 0.017334H53.4846L52.878 2.1622C52.581 3.21085 51.792 4.01733 50.7633 4.31787L48.6592 4.93625V5.23679L50.7633 5.85517C51.792 6.15787 52.5831 6.9622 52.878 8.01085L53.4846 10.1557H53.7794L54.386 8.01085C54.683 6.9622 55.472 6.15571 56.5007 5.85517L58.6048 5.23679V4.93625L56.5007 4.31787V4.32004Z" fill="#2B135A"></path>
</g><defs>
<clipPath id="clip0_107_130">
<rect width="95" height="44" fill="white"></rect>
</clipPath>
<clipPath id="SvgjsClipPath1016"><rect width="1000" height="1000" x="0" y="0" rx="350" ry="350"></rect></clipPath></defs></svg></g></g></svg></g></svg>