<svg width="160" height="161" viewBox="0 0 160 161" fill="none" xmlns="http://www.w3.org/2000/svg">
<path d="M91.2267 160.046C86.4796 161.805 80.993 161.155 76.6991 157.906L67.8914 151.254L57.3759 154.563C49.8512 156.926 41.7709 153.178 38.6787 145.881L34.3595 135.688L23.6104 133.263C15.9168 131.525 10.7821 124.212 11.7331 116.341L13.0545 105.336L4.95097 97.83C-0.849618 92.4582 -1.65478 83.5413 3.07366 77.1938L9.68595 68.3306L6.40431 57.7492C4.05782 50.1784 7.78392 42.0475 15.0368 38.935L25.1675 34.5875L27.5794 23.7716C28.7553 18.4963 32.513 14.4149 37.2644 12.649C39.4827 11.8267 41.9142 11.5086 44.4037 11.8107L55.3409 13.1385L62.8026 4.98369C64.501 3.12824 66.5608 1.77479 68.779 0.952528C73.5262 -0.806022 79.0143 -0.150472 83.3066 3.0929L92.1144 9.74455L102.63 6.43506C110.155 4.07282 118.235 7.82057 121.327 15.1177L125.646 25.3102L136.395 27.7353C144.087 29.4673 149.224 36.7865 148.273 44.6571L146.951 55.6621L155.049 63.1701C160.85 68.5419 161.655 77.4588 156.926 83.8063L150.314 92.6695L153.601 103.249C155.948 110.82 152.222 118.951 144.975 122.062L134.844 126.41L132.432 137.225C131.256 142.501 127.499 146.582 122.747 148.348C120.529 149.17 118.097 149.488 115.608 149.186L104.669 147.853L97.2074 156.007C95.509 157.863 93.4492 159.216 91.231 160.039L91.2267 160.046Z" fill="#F7F4E5"/>
<path d="M74.0903 15.4557L89.1853 26.8569L107.208 21.1898L114.615 38.662L133.037 42.8178L130.768 61.6803L144.656 74.5441L133.322 89.7342L138.951 107.867L121.585 115.323L117.451 133.86L98.7067 131.585L85.9179 145.555L70.8172 134.155L52.8001 139.821L45.3933 122.349L26.9652 118.194L29.2349 99.3318L15.3528 86.4664L26.685 71.2705L21.0572 53.1431L38.4234 45.6877L42.5568 27.1509L61.3016 29.4256L74.0903 15.4557Z" fill="#9FC8EA"/>
<path d="M80.1927 103.668L55.2834 92.0977L59.0393 83.9153L75.9369 91.7628L93.187 55.678L101.259 59.5837L80.1927 103.668Z" fill="white"/>
</svg>
