<svg width="244" height="145" viewBox="0 0 244 145" fill="none" xmlns="http://www.w3.org/2000/svg">
<path d="M103.707 135.874C35.2458 116.506 -8.71173 74.6272 1.45884 38.4767C11.6319 2.31995 70.9253 -10.3305 139.386 9.03838C207.848 28.4073 251.805 70.2856 241.635 106.436C231.461 142.593 172.166 155.25 103.707 135.874Z" fill="#F7F4E5"/>
<path d="M107.275 123.204C166.621 139.996 221.121 130.887 229.005 102.859C236.89 74.8308 195.172 38.4966 135.827 21.7045C76.4821 4.91233 21.9818 14.021 14.0975 42.0493C6.21311 70.0775 47.9303 106.412 107.275 123.204Z" fill="#FAF17F"/>
<path d="M39.993 54.2198L37.1064 53.401L38.5588 48.2333L41.8668 49.1666L43.1984 45.6246L40.0981 44.7472L41.5503 39.5795L45.0635 40.5751L46.8052 35.8649L52.3395 37.4339L50.5979 42.144L53.9765 43.0989L55.718 38.3888L61.2919 39.9667L59.5503 44.6769L62.7854 45.5948L61.3332 50.7626L57.6765 49.73L56.3449 53.2721L59.7543 54.2397L58.302 59.4074L54.4711 58.3253L52.6801 63.2102L47.1123 61.6348L48.9342 56.7625L45.5557 55.8076L43.7338 60.6799L38.1598 59.102L39.9818 54.2297L39.993 54.2198ZM50.8805 51.9917L52.3849 47.9715L48.6577 46.9174L47.1534 50.9376L50.8805 51.9917Z" fill="#877E31"/>
<path d="M68.6677 48.7714L62.3323 46.9761L64.0811 40.76L83.3742 46.2198L81.6254 52.4359L75.29 50.6406L70.3492 68.2009L63.7356 66.3281L68.6765 48.7677L68.6677 48.7714Z" fill="#877E31"/>
<path d="M84.8709 44.8753L91.0717 46.63L89.2545 53.0853C89.0569 53.7842 88.8033 54.6914 88.6146 55.3506L88.6517 55.3658C90.538 53.5954 92.9276 53.6697 94.594 54.1414C98.844 55.3442 100.18 59.0022 99.0615 62.9777L95.588 75.3332L89.3873 73.5785L92.3538 63.0373C92.8759 61.1859 92.2744 59.5827 90.5684 59.102C88.8959 58.6278 87.412 59.6385 86.8684 61.5606L83.9234 72.0311L77.7227 70.2764L84.8698 44.8604L84.8709 44.8753Z" fill="#877E31"/>
<path d="M99.5732 66.2551C101.251 60.2843 106.434 57.226 112.323 58.8967C118.309 60.5928 120.61 65.3882 118.882 71.5338C118.685 72.2327 118.49 72.7815 118.237 73.4217L105.041 69.6885C105.014 71.7928 106.123 73.4589 108.285 74.0755C109.958 74.5497 111.433 74.2504 112.536 72.8672L116.895 76.4757C114.127 79.4954 110.535 80.2512 106.564 79.126C100.711 77.4705 97.9141 72.1974 99.5793 66.2576L99.5732 66.2551ZM113.962 68.0283C113.977 66.1139 113.002 64.6324 110.95 64.0463C108.929 63.4729 107.28 64.2504 106.199 65.8299L113.962 68.0283Z" fill="#877E31"/>
<path d="M124.318 57.8071L130.932 59.6799L128.528 68.2346L136.434 70.4699L138.838 61.9153L145.452 63.7882L138.765 87.5585L132.151 85.6856L134.645 76.8211L126.738 74.5858L124.245 83.4502L117.631 81.5773L124.318 57.8071Z" fill="#877E31"/>
<path d="M147.044 89.9395L145.247 68.9324L152.249 70.9134L152.358 83.4913L159.077 72.8448L166.112 74.8323L149.388 97.5325L142.805 95.6723L147.05 89.942L147.044 89.9395Z" fill="#877E31"/>
<path d="M167.079 75.1116L173.28 76.8663C173.131 77.3905 172.899 78.227 172.738 78.7821L172.806 78.8099C174.538 77.5972 176.739 77.3921 178.659 77.9313C183.569 79.3174 186.146 84.4573 184.503 90.2905C182.883 96.0469 177.771 99.1267 173.102 97.8031C170.836 97.1586 169.347 95.9146 168.526 94.0194L168.458 93.9916C168.202 94.905 168.039 95.4663 167.757 96.4776L166.129 102.274L159.928 100.519L167.075 75.1029L167.079 75.1116ZM178.269 88.5294C178.946 86.1203 177.918 83.7582 175.619 83.1072C173.319 82.4562 171.222 83.8948 170.537 86.3437C169.817 88.894 170.933 91.0904 173.193 91.7324C175.492 92.3834 177.571 91.0092 178.266 88.5356L178.269 88.5294Z" fill="#877E31"/>
<path d="M185.472 90.564C187.15 84.5932 192.332 81.5349 198.221 83.2055C204.208 84.9017 206.508 89.6971 204.781 95.8426C204.583 96.5416 204.389 97.0903 204.136 97.7305L190.94 93.9973C190.913 96.1016 192.022 97.7678 194.178 98.3818C195.85 98.8561 197.326 98.5568 198.428 97.1735L202.788 100.782C200.019 103.802 196.428 104.558 192.456 103.432C186.604 101.777 183.807 96.5038 185.472 90.564ZM199.861 92.3372C199.876 90.4228 198.901 88.9412 196.849 88.3552C194.827 87.7818 193.179 88.5592 192.098 90.1388L199.861 92.3372Z" fill="#877E31"/>
</svg>
