<svg width="262" height="165" viewBox="0 0 262 165" fill="none" xmlns="http://www.w3.org/2000/svg">
<path d="M250.22 34.9369C248.093 34.6828 246.472 34.9235 245.598 35.0505C244.404 35.231 243.244 35.5185 242.137 35.9196C241.423 35.8929 240.703 35.933 239.969 36.04L231.226 37.3437C229.525 37.5977 227.971 38.2128 226.618 39.0886C223.37 38.2663 219.835 38.0858 216.107 38.6407C213.012 39.102 210.178 40.0648 207.617 41.4019C205.269 37.3771 200.667 34.9569 195.786 35.6856L186.995 36.996C182.38 37.6846 178.832 41.0007 177.545 45.1927C175.451 44.9854 173.29 45.0322 171.069 45.3665C167.161 45.9482 163.666 47.2652 160.652 49.1372C158.978 48.589 157.157 48.4018 155.296 48.6759L146.506 49.9863C145.913 50.0732 145.339 50.2069 144.779 50.3741C143.018 50.2002 141.098 50.2404 139.003 50.5479C137.503 50.7752 136.062 51.1563 134.688 51.6444C136.396 49.2509 137.223 46.2223 136.756 43.08L134.168 25.6504C132.314 13.175 122.27 5.41956 110.286 7.21133C108.371 7.49881 106.537 8.02699 104.823 8.7691C104.283 8.7691 103.736 8.80921 103.183 8.88944C100.035 2.73193 93.2256 -0.911768 85.8027 0.198055C78.3798 1.30788 72.931 6.77677 71.7039 13.5761C71.1237 13.663 70.5501 13.7901 70.0032 13.9639C68.2425 13.7901 66.3218 13.8302 64.2277 14.1377C62.8805 14.3383 61.5999 14.6793 60.3528 15.0938C57.9052 11.4568 53.5301 9.34408 48.9083 10.0327L37.0237 11.8044C34.256 12.2189 31.7816 13.5962 29.9809 15.6219C27.6734 14.2112 24.9057 13.6095 22.1379 14.024L10.0065 15.8359C3.59735 16.7919 -0.824329 22.7756 0.129375 29.1938L5.10462 62.7292C5.77822 67.2889 8.98611 70.8323 13.081 72.1694C9.46629 77.9191 7.85899 85.0259 8.9861 92.6142C10.7001 104.167 18.143 112.852 28.0735 116.275C19.3701 121.476 14.5016 131.465 16.1556 142.59C18.3431 157.332 30.9347 166.819 45.447 164.652C49.1551 164.097 52.5164 162.914 55.4442 161.183C57.0048 161.63 58.6855 161.771 60.3928 161.517L69.1362 160.213C70.4901 160.013 71.7506 159.585 72.891 158.983C74.1582 159.23 75.492 159.264 76.8459 159.063L85.5893 157.759C87.4767 157.479 89.184 156.75 90.6379 155.714C94.0059 156.616 97.654 156.864 101.435 156.295C105.144 155.74 108.498 154.557 111.433 152.825C112.993 153.273 114.667 153.414 116.381 153.16L125.065 151.863C130.687 157.532 138.737 159.992 147.82 158.635C153.336 157.813 158.084 155.653 161.792 152.551C164.2 154.189 167.154 154.898 170.096 154.457L179.379 153.073C184.208 152.351 188.083 148.714 189.116 143.933L197.299 106.072C198.113 102.302 197.033 98.3639 194.398 95.5425C193.785 94.8873 193.104 94.3257 192.384 93.8377C193.371 93.9513 194.392 93.9513 195.425 93.7976L204.215 92.4872C206.776 92.1061 209.011 90.9094 210.718 89.2179C214.673 90.6754 219.081 91.1768 223.696 90.4881C227.405 89.9332 230.766 88.7499 233.694 87.0183C235.254 87.4662 236.935 87.6066 238.642 87.3526L247.386 86.0489C253.795 85.0928 258.217 79.1091 257.263 72.6909L256.082 64.7617C260.004 62.3816 262.331 57.8019 261.611 52.9681L260.411 44.8918C259.63 39.6503 255.455 35.5787 250.207 34.9502L250.22 34.9369Z" fill="#F7F4E5"/>
<path d="M11.6533 27.4017L23.7847 25.5898L33.4551 39.3423L38.6638 23.3702L50.5485 21.5985L55.5237 55.1205L46.0934 56.5245L43.3456 38.0185C43.1122 38.8075 42.8721 39.5496 42.632 40.2917L36.3162 58.5904L36.0694 58.6238L24.7117 42.9593C24.2182 42.3308 23.7714 41.689 23.3712 41.0472L26.1123 59.5063L16.6353 60.917L11.6599 27.395L11.6533 27.4017Z" fill="#F28AB8"/>
<path d="M55.871 41.5355C54.6572 33.3656 59.3323 26.6799 65.8682 25.7038C69.0561 25.2291 71.6171 25.9044 73.7046 27.8031L73.8047 27.7898C73.6446 27.061 73.4778 25.9244 73.3645 25.1422L82.1546 23.8319L86.1228 50.5612L77.3326 51.8716C77.1726 50.7885 77.0926 50.2469 76.9859 49.204L76.8858 49.2174C75.4053 51.7512 72.8243 53.2956 70.1232 53.6968C63.1538 54.7397 57.0848 49.7054 55.871 41.5355ZM75.5053 38.5537C74.9917 35.1039 72.3907 32.7773 69.1962 33.2586C65.9549 33.74 64.1009 36.7887 64.6144 40.2318C65.1279 43.6749 67.7623 45.9013 71.0035 45.4199C74.1981 44.9452 76.0388 42.1506 75.5053 38.5604V38.5537Z" fill="#F28AB8"/>
<path d="M83.1279 17.1928C82.7277 14.4851 84.4951 12.212 87.4429 11.7707C90.3907 11.3295 92.745 12.9942 93.1451 15.7019C93.5453 18.4096 91.818 20.6293 88.8235 21.0772C85.8756 21.5185 83.528 19.9072 83.1279 17.1995V17.1928ZM84.7152 23.444L93.4519 22.1402L97.4201 48.8696L88.6834 50.1733L84.7152 23.444Z" fill="#F28AB8"/>
<path d="M95.9065 21.7794L104.65 20.4757C104.797 21.4585 104.943 22.448 105.083 23.3773L105.183 23.3639C106.384 20.9705 108.985 19.2255 111.933 18.7842C117.922 17.8884 121.65 21.7126 122.484 27.3219L125.071 44.7447L116.334 46.0485L114.127 31.1862C113.74 28.5788 112.186 26.894 109.632 27.2751C107.078 27.6561 106.057 29.8758 106.437 32.4297L108.631 47.1984L99.8881 48.5021L95.9198 21.7728L95.9065 21.7794Z" fill="#F28AB8"/>
<path d="M20.5174 90.8089C18.9634 80.3258 25.2125 72.0489 35.4232 70.5245C43.473 69.3211 50.2823 72.938 53.4168 80.1653L44.5534 84.0029C43.0128 80.7135 40.1117 78.7813 36.677 79.2894C31.9618 79.9914 29.7409 84.297 30.4879 89.318C31.2348 94.3389 34.6095 97.8088 39.3247 97.1068C42.8127 96.5853 45.0602 93.8375 45.5138 90.0935L55.1242 91.2769C54.2772 99.0991 48.7684 104.601 40.6719 105.812C30.4546 107.336 22.078 101.239 20.524 90.8089H20.5174Z" fill="#F28AB8"/>
<path d="M53.5836 66.3595L62.327 65.0558L64.1544 77.3574H64.2011C65.5683 74.0748 68.5961 72.8178 70.957 72.4702C76.946 71.5743 80.6808 75.3985 81.5078 81.0078L84.0954 98.4307L75.3521 99.7344L73.1446 84.8721C72.7577 82.2647 71.1037 80.5999 68.6961 80.9543C66.2885 81.3086 65.048 83.4079 65.4482 86.1156L67.6424 100.884L58.899 102.188L53.5769 66.3595H53.5836Z" fill="#F28AB8"/>
<path d="M83.9952 84.9125C82.7814 76.7426 87.4632 70.0569 93.9924 69.0808C97.187 68.6061 99.7413 69.2813 101.835 71.1801L101.935 71.1667C101.775 70.438 101.609 69.3014 101.495 68.5192L110.285 67.2088L114.254 93.9382L105.463 95.2485C105.303 94.1654 105.223 93.6239 105.117 92.5809L105.017 92.5943C103.536 95.1282 100.955 96.6726 98.254 97.0737C91.2779 98.1167 85.2156 93.0824 84.0018 84.9125H83.9952ZM103.629 81.9373C103.116 78.4875 100.515 76.1609 97.3204 76.6356C94.1258 77.1103 92.225 80.1656 92.7319 83.6088C93.2388 87.0519 95.8798 89.2782 99.121 88.7969C102.362 88.3155 104.156 85.5276 103.623 81.9373H103.629Z" fill="#F28AB8"/>
<path d="M112.74 66.8407L121.483 65.537L121.956 68.7328L122.056 68.7194C123.117 66.0451 125.144 64.8417 127.105 64.5476C127.599 64.474 128.039 64.4072 128.599 64.474L129.799 72.5436L127.685 72.8579C124.297 73.366 123.01 75.8196 123.544 79.4098L125.451 92.2597L116.708 93.5634L112.74 66.834V66.8407Z" fill="#F28AB8"/>
<path d="M130.653 77.9522C129.439 69.7823 134.114 63.0966 140.65 62.1205C143.838 61.6458 146.399 62.3211 148.487 64.2198L148.587 64.2065C148.427 63.4777 148.26 62.3412 148.146 61.559L156.937 60.2486L160.905 86.9779L152.115 88.2883C151.955 87.2052 151.875 86.6637 151.768 85.6207L151.668 85.6341C150.187 88.1679 147.606 89.7123 144.905 90.1135C137.936 91.1564 131.867 86.1221 130.653 77.9522ZM150.287 74.9704C149.774 71.5206 147.173 69.194 143.978 69.6753C140.737 70.1567 138.883 73.2054 139.396 76.6485C139.91 80.0917 142.544 82.318 145.786 81.8366C148.98 81.3619 150.821 78.5673 150.287 74.9771V74.9704Z" fill="#F28AB8"/>
<path d="M160.845 73.3459C159.578 64.835 164.413 58.1693 172.716 56.9325C178.852 56.0165 184.001 58.9248 186.662 64.6611L179.119 68.2981C177.992 66.1052 176.178 64.7146 173.77 65.069C170.529 65.5504 169.008 68.4987 169.535 72.0421C170.062 75.5855 172.356 77.8587 175.597 77.3773C178.052 77.0096 179.392 75.1978 179.766 72.6773L188.089 73.9475C187.222 80.2655 183.087 84.5577 176.704 85.5071C168.655 86.7105 162.092 81.7497 160.845 73.3325V73.3459Z" fill="#F28AB8"/>
<path d="M190.85 63.438L187.316 63.9661L186.115 55.8965L189.65 55.3684L188.643 48.5757L197.433 47.2653L198.44 54.0579L203.542 53.2958L204.742 61.3654L199.64 62.1276L202.408 80.7806L193.618 82.091L190.85 63.438Z" fill="#F28AB8"/>
<path d="M205.929 66.6203C204.682 58.2031 209.451 51.4572 217.747 50.2136C226.191 48.9567 231.759 53.6568 233.047 62.3214C233.193 63.3042 233.26 64.0998 233.3 65.0492L214.693 67.8237C215.84 70.4713 218.168 71.9354 221.209 71.4808C223.563 71.1265 225.244 69.923 225.844 67.5697L233.327 69.6222C231.559 74.9707 227.484 77.9392 221.889 78.7749C213.639 80.0051 207.177 74.9841 205.929 66.6136V66.6203ZM224.93 60.7169C223.87 58.31 221.822 57.0063 218.921 57.4409C216.073 57.8688 214.446 59.7675 213.979 62.3549L224.93 60.7236V60.7169Z" fill="#F28AB8"/>
<path d="M232.866 48.9166L241.61 47.6129C241.757 48.5957 241.943 49.8794 242.083 50.8087L242.183 50.7953C243.244 48.121 245.271 46.9176 247.239 46.6234C247.732 46.5499 248.172 46.483 248.733 46.5499L249.933 54.6195L247.819 54.9337C244.431 55.4418 243.137 57.8955 243.671 61.4857L245.578 74.3356L236.835 75.6393L232.866 48.9099V48.9166Z" fill="#F28AB8"/>
<path d="M27.6871 140.791C26.44 132.374 31.2085 125.628 39.505 124.384C47.9483 123.128 53.5172 127.828 54.8044 136.492C54.9511 137.475 55.0178 138.271 55.0578 139.22L36.4505 141.995C37.5976 144.642 39.9186 146.106 42.9664 145.652C45.3207 145.297 47.0013 144.094 47.6015 141.74L55.0844 143.793C53.3171 149.142 49.2422 152.11 43.6467 152.946C35.3968 154.176 28.9343 149.155 27.6871 140.784V140.791ZM46.6812 134.888C45.6207 132.481 43.5733 131.177 40.6788 131.612C37.831 132.04 36.2037 133.938 35.7369 136.526L46.6878 134.894L46.6812 134.888Z" fill="#F28AB8"/>
<path d="M54.6237 123.087L63.3671 121.783L63.8006 124.685L63.9007 124.672C65.1012 122.278 67.7022 120.533 70.65 120.092C76.639 119.196 80.3671 123.02 81.2007 128.63L83.7884 146.053L75.0517 147.356L72.8441 132.494C72.4573 129.887 70.9034 128.202 68.3491 128.583C65.7947 128.964 64.7744 131.184 65.1545 133.737L67.3487 148.506L58.6053 149.81L54.6371 123.081L54.6237 123.087Z" fill="#F28AB8"/>
<path d="M83.6749 132.434C82.4278 124.017 87.1964 117.271 95.4929 116.027C103.936 114.77 109.505 119.47 110.792 128.135C110.939 129.118 111.006 129.913 111.046 130.863L92.4384 133.637C93.5855 136.285 95.9064 137.749 98.9543 137.294C101.309 136.94 102.989 135.737 103.589 133.383L111.072 135.436C109.305 140.784 105.23 143.753 99.6345 144.588C91.3846 145.819 84.9221 140.798 83.6749 132.427V132.434ZM102.669 126.53C101.609 124.124 99.5612 122.82 96.6667 123.254C93.819 123.682 92.1916 125.581 91.7248 128.168L102.676 126.537L102.669 126.53Z" fill="#F28AB8"/>
<path d="M110.612 114.73L119.355 113.426C119.502 114.409 119.689 115.693 119.829 116.622L119.929 116.609C120.989 113.935 123.017 112.731 124.978 112.437C125.471 112.363 125.911 112.297 126.472 112.363L127.672 120.433L125.558 120.747C122.17 121.255 120.883 123.709 121.416 127.299L123.324 140.149L114.58 141.453L110.612 114.723V114.73Z" fill="#F28AB8"/>
<path d="M131.714 141.567L138.956 137.268C140.23 139.087 142.204 139.902 144.759 139.521C148.247 139 150.248 136.593 149.721 133.043C149.614 132.307 149.541 131.813 149.481 131.07L149.381 131.084C148.3 133.611 145.532 135.583 141.851 136.132C135.128 137.134 129.726 132.555 128.639 125.22C127.479 117.392 131.54 110.953 138.71 109.884C141.851 109.416 144.772 110.138 146.553 111.983L146.653 111.969C146.506 111.334 146.339 110.204 146.226 109.416L155.016 108.105L158.471 131.385C159.678 139.508 154.563 145.652 146.019 146.929C139.197 147.945 134.501 145.732 131.72 141.567H131.714ZM148.307 122.493C147.8 119.096 145.286 117.01 142.044 117.492C138.71 117.987 136.962 120.768 137.456 124.111C137.943 127.407 140.497 129.392 143.738 128.911C146.88 128.443 148.814 125.889 148.307 122.493Z" fill="#F28AB8"/>
<path d="M170.376 133.183L156.337 107.911L166.208 106.44L173.404 122.118L175.832 105.003L185.749 103.525L177.566 141.373L168.289 142.757L170.376 133.19V133.183Z" fill="#F28AB8"/>
</svg>
