<svg width="204" height="140" viewBox="0 0 204 140" fill="none" xmlns="http://www.w3.org/2000/svg">
<path d="M203.494 76.6529L180.451 4.59829C179.338 1.1171 175.621 -0.79897 172.149 0.318659L4.58724 54.2622C1.11562 55.3798 -0.796211 59.1079 0.317083 62.5891L23.3603 134.644C24.4736 138.125 28.1904 140.041 31.6621 138.923L199.224 84.9798C202.695 83.8622 204.607 80.1341 203.494 76.6529Z" fill="#F7F4E5"/>
<path d="M164.553 17.7898L21.0173 63.9985C18.3698 64.8508 16.9118 67.6939 17.7608 70.3488L33.0992 118.311C33.9482 120.966 36.7827 122.427 39.4303 121.575L182.966 75.366C185.613 74.5137 187.071 71.6705 186.222 69.0156L170.884 21.0535C170.035 18.3987 167.2 16.9375 164.553 17.7898Z" fill="#9FC8EA"/>
<path d="M52.1003 73.9909L66.5228 69.343L67.9918 73.9254L58.5298 76.9715L60.0065 81.5864L69.0181 78.6871L70.4217 83.0761L61.4101 85.9754L64.1483 94.5226L59.1922 96.1191L52.1139 73.9848L52.1003 73.9909Z" fill="#2B1F5A"/>
<path d="M71.2687 82.5119C69.5441 77.1178 72.0358 71.9444 77.3827 70.2209C82.7296 68.4973 87.7523 71.221 89.4769 76.6151C91.2015 82.0093 88.7097 87.1827 83.3628 88.9062C77.9835 90.6375 72.9855 87.8736 71.2687 82.5119ZM84.8056 78.1183C83.9106 75.3246 81.4551 73.5705 78.733 74.4439C76.0109 75.3174 75.0321 78.1781 75.9349 81.0044C76.8221 83.7656 79.2854 85.5522 82.0075 84.6788C84.6971 83.8131 85.6954 80.9078 84.8056 78.1183Z" fill="#2B1F5A"/>
<path d="M86.3077 61.3597L90.979 59.8564L98.5296 83.4518L93.8583 84.955L86.3077 61.3597Z" fill="#2B1F5A"/>
<path d="M93.3054 59.1061L97.9766 57.6029L105.527 81.1982L100.856 82.7015L93.3054 59.1061Z" fill="#2B1F5A"/>
<path d="M104.266 71.8894C102.542 66.4953 105.034 61.3219 110.38 59.5984C115.727 57.8749 120.75 60.5985 122.475 65.9926C124.199 71.3868 121.707 76.5602 116.36 78.2837C110.981 80.015 105.983 77.2511 104.266 71.8894ZM117.803 67.4958C116.908 64.7021 114.453 62.9481 111.731 63.8215C109.009 64.695 108.03 67.5557 108.932 70.382C109.82 73.1432 112.283 74.9297 115.005 74.0563C117.695 73.1906 118.693 70.2853 117.803 67.4958Z" fill="#2B1F5A"/>
<path d="M119.336 57.3219L124.007 55.8186L130.904 65.5371L131.299 53.4705L134.605 52.4045L142.029 62.0923L141.864 50.0641L146.535 48.5609L146.496 68.0024L142.381 69.3252L135.061 59.6371L134.726 71.7882L130.643 73.1031L119.335 57.3125L119.336 57.3219Z" fill="#2B1F5A"/>
</svg>
