<svg width="161" height="162" viewBox="0 0 161 162" fill="none" xmlns="http://www.w3.org/2000/svg">
<path d="M37.9905 149.032C0.324387 125.608 -11.3098 75.8367 12.0565 38.084C35.4228 0.325222 85.0715 -11.3377 122.732 12.0862C160.398 35.51 172.032 85.281 148.666 123.04C125.299 160.799 75.6505 172.462 37.9905 149.038V149.032Z" fill="#F7F4E5"/>
<path d="M80.3585 146.586C116.733 146.586 146.221 117.026 146.221 80.5616C146.221 44.0974 116.733 14.5373 80.3585 14.5373C43.9839 14.5373 14.4964 44.0974 14.4964 80.5616C14.4964 117.026 43.9839 146.586 80.3585 146.586Z" fill="#C4ABD2"/>
<path d="M103.871 87.8055C97.9164 81.2049 95.8011 72.1528 98.2099 63.5911L103.144 46.0692L101.065 44.776L87.5966 56.9905C81.0122 62.9598 71.9824 65.0803 63.4416 62.6595L45.9567 57.7137L44.6667 59.7974L56.8512 73.2989C62.8059 79.8995 64.9211 88.9515 62.5124 97.5133L57.5787 115.035L59.6573 116.328L73.1257 104.114C79.7101 98.1446 88.7399 96.024 97.2807 98.4387L114.76 103.385L116.049 101.301L103.865 87.7932L103.871 87.8055Z" fill="#2B1F5A"/>
</svg>
