<svg width="298" height="198" viewBox="0 0 298 198" fill="none" xmlns="http://www.w3.org/2000/svg">
<path d="M104.168 182.844C98.078 184.691 91.4539 183.447 86.4434 179.521C85.8761 179.079 85.333 178.602 84.8292 178.105C83.3485 185.045 78.1873 190.721 71.3449 192.795L59.5129 196.385C53.4517 198.221 46.8437 196.999 41.8444 193.102C36.8393 189.205 34.0204 183.099 34.2956 176.754L34.6335 168.985C34.9729 161.259 35.3663 152.366 35.598 145.369C33.814 145.732 25.4503 147.457 23.4356 147.862C17.4222 149.078 11.1034 147.357 6.52531 143.255C1.95528 139.164 -0.460667 133.059 0.073022 126.931L1.04038 115.788C1.68975 108.293 6.65264 101.748 13.6877 99.1128C21.5338 96.1665 31.9678 91.721 36.0871 89.9464C39.6056 88.4634 39.6624 88.0983 40.1063 85.2227L40.1848 84.7743C41.39 77.8281 43.4839 61.5517 45.5082 45.8078L46.0001 42.006C46.9814 34.3537 52.3817 27.9685 59.7446 25.7331L71.5718 22.1504C77.6448 20.3121 84.2539 21.5402 89.2542 25.4435C89.8365 25.9016 90.3925 26.3829 90.9182 26.9001C92.392 19.9546 97.5413 14.2813 104.401 12.2036L116.229 8.62096C120.912 7.20373 125.915 7.6072 130.256 9.66529C132.709 5.63323 136.585 2.50135 141.292 1.07395L142.102 0.830274C150.41 -1.68515 159.496 1.65478 164.207 8.9565L164.401 9.25806L164.755 9.25566C173.43 9.1395 181.242 14.8743 183.749 23.1962L183.992 24.009C186.499 32.331 183.167 41.4459 175.883 46.1693L175.582 46.3641L175.585 46.7185C175.595 47.5243 175.555 48.3267 175.47 49.1129C203.386 41.8236 239.617 32.2625 273.048 23.3576C279.181 21.7225 285.753 23.1837 290.627 27.2688C295.501 31.3538 298.098 37.5857 297.578 43.9254L297.148 49.166C296.513 56.9764 291.309 63.6443 283.903 66.1505C220.734 87.548 150.582 111.602 138.712 116.171C135.974 117.275 135.848 118.209 135.715 119.206C135.695 119.369 135.661 119.589 135.622 119.81C134.88 124.159 132.968 138.622 131.283 151.381L129.734 163.093C128.715 170.709 123.328 177.062 115.993 179.286L104.161 182.875L104.168 182.844Z" fill="#F7F4E5"/>
<path d="M285.197 33.7571C282.433 31.44 278.714 30.6098 275.232 31.5419C213.419 47.9971 143.637 66.3072 131.451 69.1102C131.383 66.3082 131.604 59.0069 132.092 47.3382C133.859 48.446 135.921 49.0907 138.106 49.0588L143.153 48.9895L145.889 53.2326C148.574 57.3992 153.682 59.2765 158.418 57.8438L159.229 57.6001C163.965 56.1674 167.18 51.7596 167.112 46.8043L167.044 41.751L171.283 39.0067C175.434 36.3149 177.313 31.193 175.878 26.4467L175.635 25.6339C174.207 20.8865 169.81 17.6638 164.867 17.7328L159.821 17.8021L157.084 13.5531C154.398 9.38653 149.29 7.50918 144.555 8.94782L143.744 9.19148C139.009 10.6242 135.793 15.032 135.862 19.9873L135.929 25.0406L132.965 26.9623C132.839 23.6997 131.31 20.6406 128.719 18.6103C125.875 16.3872 122.137 15.6889 118.68 16.7326L106.853 20.3152C102.667 21.5817 99.6154 25.1955 99.056 29.5417L98.4956 33.882C96.4932 49.4752 94.425 65.5879 93.2134 72.4985C92.6825 75.1267 91.1663 79.4798 86.8509 81.4548C86.9864 71.6666 87.6499 56.3326 88.3204 41.4133C88.4809 37.8056 86.8863 34.3483 84.0497 32.136C81.206 29.9188 77.4694 29.2264 74.0246 30.268L62.1974 33.8506C58.0116 35.1171 54.9655 38.7298 54.4061 43.0761L53.9142 46.878C51.8762 62.7161 49.7698 79.0926 48.5183 86.2918C48.5063 86.3613 48.4943 86.4307 48.4823 86.5002C47.5551 92.5093 45.381 95.231 39.4326 97.7321C35.2573 99.5351 24.6759 104.044 16.646 107.054C12.6369 108.558 9.84637 112.235 9.47577 116.51L8.5084 127.653C8.2053 131.146 9.56358 134.578 12.1657 136.912C14.7747 139.251 18.3221 140.216 21.7494 139.521C23.9818 139.07 26.1943 138.611 28.3784 138.163C34.0634 136.988 39.4372 135.881 44.0801 135.089C44.1452 135.078 44.2102 135.066 44.2645 135.062C44.2676 135.08 44.2698 135.092 44.267 135.111C44.3359 140.922 43.6735 156.024 43.0833 169.344L42.7443 177.107C42.5887 180.708 44.1833 184.165 47.0248 186.371C49.8673 188.582 53.598 189.275 57.0418 188.228L68.8738 184.638C73.03 183.377 76.0718 179.808 76.6552 175.494L82.5863 131.94C83.0958 128.202 85.5102 125.015 88.8848 123.479C88.8613 129.9 88.0991 149.528 87.395 163.475C87.2108 167.087 88.7968 170.564 91.6436 172.799C94.4893 175.028 98.2339 175.731 101.69 174.682L113.522 171.092C117.69 169.829 120.734 166.241 121.31 161.916L122.86 150.21C124.637 136.737 126.48 122.812 127.237 118.375C127.257 118.249 127.278 118.129 127.293 118.004C127.689 115.07 129.011 110.856 135.649 108.188C147.645 103.565 217.935 79.4681 281.174 58.0519C285.369 56.6308 288.323 52.8451 288.68 48.4251L289.109 43.1785C289.405 39.5771 287.933 36.0549 285.169 33.7377L285.197 33.7571Z" fill="#C4ABD2"/>
<path d="M277.652 47.5391L278.081 42.2925C216.699 58.6335 143.966 77.7375 133.228 80.1087C125.85 81.576 120.55 76.9864 120.379 69.8167C120.189 64.4916 121.121 43.6952 121.902 27.3796L110.075 30.9622C107.831 48.4156 105.499 66.8087 104.132 74.5549C102.437 83.1981 96.9721 90.1088 88.7748 92.5922C82.141 94.6047 76.061 89.9534 75.7533 82.5329C75.8503 72.9046 76.5134 57.2954 77.245 40.9091L65.4179 44.4917C63.1723 61.9333 60.8554 80.1707 59.459 88.1974C57.9442 98.0195 53.2046 104.004 43.8291 107.954C40.7817 109.273 29.3499 114.179 20.5482 117.481L19.5809 128.624C27.674 126.991 35.5557 125.268 42.3491 124.114C49.7938 122.916 55.4368 127.615 55.3874 134.984C55.4762 142.272 54.5329 161.878 53.8593 177.599L65.6913 174.009L71.6284 130.454C72.7934 121.919 78.8144 114.841 87.0403 112.346C93.6456 110.345 100.075 115.007 100.006 122.366C100.084 128.023 99.2139 150.087 98.5081 164.059L110.34 160.469C112.631 143.246 115.312 122.471 116.329 116.519C117.51 107.871 122.769 101.413 131.703 97.8245C143.687 93.2103 213.446 69.282 277.651 47.5331L277.652 47.5391Z" fill="#2B1F5A"/>
<path d="M158.74 28.9289C155.672 28.9727 152.844 27.4563 151.179 24.8681L147.769 19.5839L146.958 19.8275L147.04 26.1202C147.083 29.1957 145.564 32.0321 142.988 33.7005L137.716 37.1199L137.959 37.9327L144.237 37.8502C147.304 37.8063 150.134 39.3287 151.798 41.9109L155.208 47.1952L156.019 46.9515L155.937 40.6588C155.894 37.5833 157.413 34.7469 159.989 33.0785L165.26 29.6591L165.017 28.8463L158.74 28.9289Z" fill="#2B1F5A"/>
</svg>
