<svg width="182" height="182" viewBox="0 0 182 182" fill="none" xmlns="http://www.w3.org/2000/svg">
<path d="M54.3526 179.288C48.15 176.889 44.2251 170.593 44.8097 163.968L47.9362 128.632C47.9777 128.183 48.0062 127.738 48.0292 127.287C46.335 126.971 44.6462 126.487 42.9689 125.836C34.336 122.502 28.2869 115.726 26.3658 107.238C25.2876 102.462 26.6067 97.6424 29.6262 94.1345L5.92781 76.1623C0.630206 72.1444 -1.39681 65.0058 0.995079 58.8023L2.71791 54.3363C5.11595 48.1335 11.4114 44.2089 18.0363 44.794L33.0533 46.1207L34.2789 42.9445C37.2604 35.225 45.9592 31.3752 53.6792 34.3512L63.9956 38.3363C66.1509 39.1679 68.132 40.2359 69.9162 41.5191C71.5824 41.5717 73.237 41.9089 74.807 42.5168L75.1947 42.6698C78.7318 40.435 81.8113 37.5922 84.3905 34.1929L105.821 5.92727C109.839 0.629678 116.977 -1.39694 123.18 0.995506L127.646 2.71876C133.849 5.11735 137.774 11.4134 137.189 18.0386L134.062 53.3746C133.668 57.8013 134.095 62.1536 135.322 66.3423C135.797 66.6723 136.25 67.025 136.688 67.4071C139.871 67.515 143.021 68.1664 146.09 69.3498C155.917 73.1461 162.379 81.1223 163.805 91.2362C164.051 92.959 163.99 94.7052 163.636 96.4016L176.072 105.832C181.37 109.85 183.397 116.989 181.005 123.192L179.282 127.658C176.884 133.861 170.589 137.786 163.964 137.201L132.946 134.449L133.058 134.976C133.679 137.845 133.446 140.81 132.385 143.544C129.387 151.299 120.678 155.185 112.959 152.203L105.031 149.142C104.117 148.791 103.249 148.357 102.429 147.835C101.477 147.665 100.535 147.404 99.6218 147.052L98.5352 146.632C98.2082 147.02 97.8996 147.41 97.6027 147.807L76.1718 176.073C72.1545 181.37 65.0163 183.397 58.813 181.005L54.3471 179.281L54.3526 179.288Z" fill="#F7F4E5"/>
<path d="M172.153 111.022L156.835 99.4084C156.986 98.461 156.98 97.5157 156.816 96.6033C157.393 95.2102 157.592 93.6777 157.381 92.1574C156.291 84.447 151.325 78.3513 143.756 75.4223C140.437 74.1377 137.077 73.7065 133.866 73.9809C132.944 72.5904 131.61 71.4605 129.953 70.7937C127.885 65.1547 127.042 59.0367 127.597 52.8061L130.724 17.4701C131.056 13.6955 128.853 10.1491 125.312 8.7851L120.847 7.06184C117.306 5.69783 113.294 6.83821 111.004 9.85797L89.5732 38.1236C85.8007 43.1054 81.0677 47.0653 75.7507 49.8508L72.4672 48.5825C70.9272 47.984 69.3161 47.8813 67.8065 48.1686C66.1309 46.6234 64.0736 45.336 61.6557 44.402L51.3393 40.4169C46.9576 38.7213 42.0341 40.9022 40.3389 45.284L37.3486 53.0275L17.462 51.2646C13.6876 50.9323 10.1416 53.1351 8.77786 56.6759L7.05501 61.1418C5.69132 64.6826 6.83192 68.6942 9.85168 70.9849L37.916 92.267C37.6788 93.5656 37.5931 94.843 37.7037 96.0853C33.9116 97.6778 31.7931 101.772 32.7017 105.803C34.1303 112.138 38.7242 117.225 45.3029 119.769C48.4012 120.968 51.4752 121.4 54.3446 121.183C54.6123 123.815 54.6386 126.497 54.4016 129.2L51.2751 164.536C50.9425 168.317 53.1461 171.857 56.6867 173.221L61.1525 174.944C64.6932 176.308 68.7039 175.174 70.9949 172.148L92.4259 143.882C93.7629 142.116 95.2331 140.501 96.7905 139.001L101.967 140.998C102.916 141.366 103.891 141.551 104.858 141.573C105.592 142.21 106.444 142.729 107.376 143.089L115.304 146.149C119.686 147.845 124.636 145.592 126.331 141.21C126.93 139.664 127.059 137.975 126.709 136.353L125.806 132.155C127.321 130.937 128.614 129.408 129.635 127.64L164.544 130.73C168.319 131.062 171.865 128.859 173.229 125.319L174.951 120.853C176.315 117.312 175.181 113.301 172.155 111.01L172.153 111.022Z" fill="#F28AB8"/>
<path d="M138.745 96.3627C124.934 85.8912 117.599 69.3265 119.125 52.0617L122.252 16.7257L117.786 15.0025L96.355 43.2681C85.885 57.079 69.3224 64.4072 52.0522 62.8786L16.7178 59.7494L14.995 64.2154L43.2607 85.6493C57.0709 96.127 64.4067 112.686 62.88 129.95L59.7535 165.286L64.2194 167.01L85.6503 138.744C96.1203 124.933 112.683 117.605 129.954 119.127L165.288 122.256L167.011 117.791L138.746 96.3504L138.745 96.3627Z" fill="#FAF17F"/>
<path d="M48.2761 48.3642L58.5925 52.3493C63.8344 54.3724 65.3586 58.518 63.6869 62.8526C62.495 65.9455 59.822 67.7686 56.8144 67.6483L59.2225 78.8112L59.1969 78.8769L51.2683 75.8165L49.244 64.9616L45.8589 73.7321L39.4408 71.2547L48.2748 48.3765L48.2761 48.3642ZM52.5128 56.2906L50.79 60.7565L53.9122 61.9643C55.2914 62.496 56.6355 62.0109 57.1665 60.6378C57.6981 59.2586 57.0142 58.03 55.635 57.4983L52.5128 56.2906Z" fill="#2B1F5A"/>
<path d="M69.4042 56.524L75.7861 58.9913L66.9521 81.8695L60.5703 79.4021L69.4042 56.524Z" fill="#2B1F5A"/>
<path d="M69.914 78.6097L75.8364 76.2676C76.428 78.4248 77.9161 80.2733 79.8978 81.043C81.277 81.5747 82.4818 81.3483 82.8746 80.3397C83.3187 79.1997 82.3432 78.3193 81.372 77.632C76.7416 74.5302 73.8992 71.3883 75.6544 66.8512C77.4191 62.284 82.4419 60.8657 87.0807 62.657C90.5078 63.9779 92.7603 66.3549 93.8581 69.5976L87.7463 72.0253C87.0318 69.9731 86.2406 68.8201 84.8675 68.289C83.4883 67.7573 82.3229 68.0811 81.9462 69.0541C81.544 70.0928 82.4439 70.8658 83.4251 71.5169C87.8686 74.5056 91.1585 77.5894 89.2227 82.5983C87.5254 86.9986 82.759 88.6368 77.2845 86.5206C73.4519 85.0386 70.7549 82.3409 69.9133 78.6158L69.914 78.6097Z" fill="#2B1F5A"/>
<path d="M97.0226 67.1863L103.404 69.6536L94.5704 92.5318L88.1886 90.0645L97.0226 67.1863Z" fill="#2B1F5A"/>
<path d="M105.416 70.4332L111.732 72.8749L114.963 84.8958C115.241 85.9694 115.535 87.0074 115.818 88.0816L120.395 76.2244L126.776 78.6917L117.942 101.57L111.662 99.1444L108.376 87.0617C108.092 85.9874 107.834 84.9595 107.576 83.9376L103 95.7948L96.5815 93.3175L105.416 70.4393L105.416 70.4332Z" fill="#2B1F5A"/>
<path d="M124.003 90.7776C126.77 83.6195 133.696 80.6629 140.687 83.3628C145.391 85.1797 148.312 88.8147 148.95 93.351L141.833 93.8821C141.667 91.8136 140.55 90.1039 138.401 89.2729C135.075 87.9877 132.194 89.8446 130.821 93.4093C129.433 97.0034 130.27 100.535 133.734 101.866C136.051 102.759 138.257 102.346 139.738 100.515L134.126 98.3467L136.071 93.3078L148.435 98.082C148.291 98.5638 148.099 99.1463 147.908 99.6543C145.013 107.147 138.345 110.131 131.288 107.405C124.5 104.783 121.27 97.8584 124.004 90.7714L124.003 90.7776Z" fill="#2B1F5A"/>
<path d="M41.0016 103.937L46.9241 101.595C47.5156 103.752 49.0037 105.601 50.9854 106.371C52.3646 106.902 53.5694 106.676 53.9561 105.667C54.4002 104.527 53.4246 103.646 52.4528 102.965C47.8224 99.8633 44.98 96.7214 46.7352 92.1843C48.4999 87.6171 53.5226 86.1988 58.1615 87.9901C61.5886 89.311 63.8349 91.6874 64.9389 94.9307L58.8272 97.3584C58.1126 95.3062 57.3214 94.1532 55.9483 93.6221C54.5691 93.0904 53.4037 93.4142 53.027 94.3872C52.6248 95.426 53.5247 96.1989 54.5059 96.85C58.9494 99.8387 62.2393 102.923 60.3035 107.931C58.6062 112.332 53.8398 113.97 48.3653 111.854C44.5327 110.372 41.8358 107.674 40.9942 103.949L41.0016 103.937Z" fill="#2B1F5A"/>
<path d="M70.5437 100.33L64.4306 97.9654L66.7431 91.9834L85.3579 99.1737L83.0454 105.156L76.9323 102.791L70.404 119.693L64.0222 117.226L70.5505 100.324L70.5437 100.33Z" fill="#2B1F5A"/>
<path d="M90.6533 101.221L97.7757 103.972L97.4071 130.123L90.1534 127.321L90.4964 122.739L83.0041 119.843L80.0763 123.423L73.3239 120.817L90.6595 101.222L90.6533 101.221ZM90.9462 116.858L91.5081 109.509L86.7785 115.253L90.9455 116.864L90.9462 116.858Z" fill="#2B1F5A"/>
<path d="M107.447 107.708L117.764 111.693C123.006 113.716 124.53 117.862 122.858 122.197C121.666 125.29 118.993 127.113 115.986 126.992L118.394 138.155L118.368 138.221L110.44 135.161L108.415 124.306L105.03 133.076L98.6121 130.599L107.446 107.721L107.447 107.708ZM111.683 115.641L109.961 120.107L113.083 121.314C114.462 121.846 115.806 121.361 116.337 119.988C116.868 118.615 116.185 117.38 114.806 116.849L111.683 115.641Z" fill="#2B1F5A"/>
</svg>
