<?xml version="1.0" encoding="UTF-8"?>
<svg id="Camada_1" xmlns="http://www.w3.org/2000/svg" version="1.1" viewBox="0 0 1000 1000">
  <!-- Generator: Adobe Illustrator 30.4.0, SVG Export Plug-In . SVG Version: 2.1.4 Build 226)  -->
  <defs>
    <style>
      .st0 {
        fill: #fcc301;
      }

      .st1 {
        fill: #fa5700;
      }

      .st2 {
        fill: #fff;
      }

      .st3 {
        fill: #0661d2;
      }
    </style>
  </defs>
  <path d="M467.39,288.71c7.32,6.16,28.34,23.83,32.17,53.2,2.39,18.28-2.9,33.24-6.34,40.99l47.05,24.68c-2.49-38.7,31.22-70.05,69.1-64.05,16.59,2.63,28.46,17.12,34.71,31.45l19.47,44.67c11.78.23,21.6,4.75,27.28,12.62,6.97,9.64,9.47,21.19,4.2,32.11l-1.49,3.08c-.97,2.01,15.76,1.18,25.74,14.34,7.03,9.27,5.91,19.71,2.13,29.45,11.08.16,19.74,4.24,26,10.55,10.1,10.17,5.97,21.25,5.91,32.46l63.78,38.87c21.67,15.6,33.18,39.98,29.81,66.66,8.55,26.49-2.44,52.44-25.03,68.23-55.88,38.11-125.16,38.35-189.34,17.35-36.36-11.89-68.46-30.36-100.11-51.63-15.36-10.32-31.1-17.72-48.58-23.79l-71.95-24.95c-11.43-3.96-21.79-10.69-31.88-17.32-10.87-7.14-20.35-17.8-24.91-30.64-8.67-24.4.97-46.22,14.9-64.84.17-16.08-.02-33.52,7.32-47.88l-37.33-.72c-24.96-.48-68.47-25.34-63.71-57.21-40.79-7.27-86.97-37.07-74.2-77.63-40.14-18.61-96.37-65.12-64.72-101.94-20.62-21.64-42.13-61.82-27.07-82.64,8.39-11.62,24.37-11.44,36.54-3.56,45.54,29.5,63.93,39.95,125.81,63.03,6.32,2.36,22.56,7.22,55.02,16.94,28.14,8.43,33.34,9.64,55.08,16.16,70.42,21.11,78.78,27.03,84.65,31.96h0ZM360.47,412.61c-21.87,9.27-42.77,11.59-66.48,14.07-.89,5.87,1.03,13.07,5.36,17.76,27.12,29.34,80.64,24.69,118.57,10.86,9.64,15.32,22.91,26.66,39.1,34.8,26,13.07,50.2,3.19,67.91-19.54-31.55-8.13-54.38-32.71-55.11-65.16-.25-11.08,4.66-22.8,8.16-33.01,9.85-28.72.41-57.85-25.9-73.39-16.7-9.87-34.85-15.04-54.27-19.87-52.99-13.17-104.24-27.23-154.82-48.09-38.38-15.83-72.61-35.65-107.29-57.89-2.45-1.57-8.4-2.03-10.34-.47-7.13,5.72-.34,25.37,7.61,39.37,13.23,23.33,32.67,38.82,54.47,55.65-14.99,3.12-32.05-14.14-39-7.74-5.31,4.89-3.48,17.83,2.88,26.67,31.24,43.41,90.16,63.77,141.67,59.65-3.82-4.41-6.45-7.12-3.15-12.42,19.54,20.08,41.22,33.98,68.76,40.17.67.41,2.82,4.76,1.58,5.08-13.58,3.43-43.8-12.52-60.51-24.62-25.67,2.05-51.16,1.95-77.21-3.13-17.83,19.01,12.76,43.34,39.49,52.98,36.52,13.16,64.82,1.75,98.51,8.29v-.02ZM604.54,446.21l42.54-19.23-22.32-52.9c-7.2-12.59-19.99-19.46-34.29-14.74-30.74,10.14-38.55,35.03-30.81,66.69,18.65-1.92,33.52,6.63,44.88,20.19h0ZM606.92,483.19c22.55-15.5,45.8-26.12,73.16-27.98,1.02-5.97-.71-12.21-4.17-15.68-14.48-14.5-61.02,10.64-82.2,25.52-5.54,3.89-6.9,11.81-3.94,16.43,3.31,5.16,10.97,5.94,17.14,1.7h.01ZM468.92,645.39c30.13,9.14,56.42,21.38,82.46,39.01,56.3,38.1,124.25,64.21,193.49,53.7l42.7-52.45c10.68-13.12,26.64-21.14,40.43-29.83,5.02-18.69-6.11-39.64-22.09-49.35l-42.72-25.94-33.98-25.67c-19.78,5.78-36.93,16.63-53.99,27.81-8.45,5.53-19.67-.3-23.65-7.04-10.42-17.68,10.79-27.56,7.03-34.69-8.22-15.6-15.96,9.18-33.99-3.26-6.83-4.71-10.66-14.6-6.4-23.65,2.81-5.98,8.12-10.5,13.94-15.36l-10.91-13.35c-14.88,10.05-29.12,14.29-39.1,2.12-3.8-4.63-5.41-12.95-2.5-19.17,3.35-7.14,9.6-11.95,17.06-16.24-21.46-29.01-55.02-13.72-85.46,3.87l24.19,11.28c8.26,3.85,14.33,13.61,19.87,21.44,25.99,36.7,53.14,71.13,85.35,102.39,14.54,14.11,31.07,22.51,49.99,30.51-2.04,5.19-7.07,4.69-11.61,2.96-24.11-9.2-42.48-24.81-61.47-44.66l-38.89,52.22-31.68-19.81,46.22-60.11-36.17-46.23-24.51-31.48c-21.27,25.39-47.67,37.11-76.88,24.22-16.07-7.09-28.7-18.77-39.07-32.89-27.8,10.84-32.67,41.43-28.96,71-14.27,14.29-25.07,34.02-16.79,54.56,11.24,27.88,64.76,44.01,98.08,54.11v-.02ZM638.6,494.56l38.02-17.43-7.7-12-41.34,15.32,11.02,14.11ZM644.24,528.4c19.81-13.82,39.36-22.25,62.68-25.45,2.09-34.44-47.4-11.8-74.21,6.92-6.06,4.23-8.43,13.08-3.48,18.96,3.08,3.66,10.45,2.74,15-.44h.01ZM668.47,539.41l33.88-17.34c1.48-2.74-5.36-8.85-8.5-7.55l-34.8,14.43c2.94,4.28,6.51,8.55,9.42,10.46ZM672.29,573.65c20.94-14.83,41.17-24.79,65.3-30.58.27-5.98-1.11-11.09-4.16-13.32-2.58-1.89-10.18-4.32-13.33-3.3-21.08,6.8-39.76,15.98-57.05,28.97-3.89,2.92-5.25,10.1-3.9,13.89,1.48,4.14,8.32,7.75,13.14,4.34ZM830.67,664.65c-22.33,8.47-37.8,23.73-51.04,41.74l-20.73,28.18c38.55-7.06,82.18-30.56,71.77-69.92h0Z"/>
  <path class="st1" d="M468.92,645.39c-33.32-10.1-86.85-26.23-98.08-54.11-8.27-20.54,2.53-40.27,16.79-54.56-3.71-29.57,1.16-60.16,28.96-71,10.37,14.12,23.01,25.8,39.07,32.89,29.21,12.89,55.61,1.17,76.88-24.22l24.51,31.48,36.17,46.23-46.22,60.11,31.68,19.81,38.89-52.22c18.99,19.86,37.36,35.47,61.47,44.66,4.54,1.73,9.57,2.23,11.61-2.96-18.93-8-35.46-16.4-49.99-30.51-32.21-31.26-59.36-65.7-85.35-102.39-5.54-7.83-11.61-17.59-19.87-21.44l-24.19-11.28c30.43-17.59,63.99-32.87,85.46-3.87-7.46,4.29-13.72,9.1-17.06,16.24-2.92,6.22-1.31,14.54,2.5,19.17,9.99,12.17,24.23,7.93,39.1-2.12l10.91,13.35c-5.82,4.86-11.12,9.38-13.94,15.36-4.26,9.05-.43,18.94,6.4,23.65,18.04,12.44,25.77-12.34,33.99,3.26,3.76,7.13-17.45,17.01-7.03,34.69,3.97,6.75,15.2,12.58,23.65,7.04,17.05-11.17,34.21-22.02,53.99-27.81l33.98,25.67,42.72,25.94c15.99,9.71,27.12,30.66,22.09,49.35-13.79,8.68-29.75,16.7-40.43,29.83l-42.7,52.45c-69.24,10.51-137.19-15.6-193.49-53.7-26.04-17.62-52.33-29.87-82.46-39.01v.02Z"/>
  <path class="st0" d="M360.47,412.61c-33.69-6.54-61.98,4.87-98.51-8.29-26.73-9.63-57.32-33.97-39.49-52.98,26.06,5.08,51.54,5.18,77.21,3.13,16.71,12.1,46.93,28.05,60.51,24.62,1.24-.31-.91-4.67-1.58-5.08-27.53-6.19-49.22-20.1-68.76-40.17-3.3,5.3-.67,8.01,3.15,12.42-51.51,4.13-110.43-16.23-141.67-59.65-6.36-8.84-8.19-21.78-2.88-26.67,6.95-6.4,24.01,10.87,39,7.74-21.8-16.83-41.24-32.32-54.47-55.65-7.94-14-14.73-33.65-7.61-39.37,1.94-1.55,7.89-1.1,10.34.47,34.68,22.24,68.91,42.06,107.29,57.89,50.57,20.86,101.83,34.92,154.82,48.09,19.42,4.83,37.57,10,54.27,19.87,26.31,15.55,35.75,44.67,25.9,73.39-3.5,10.2-8.41,21.92-8.16,33.01.73,32.45,23.56,57.03,55.11,65.16-17.72,22.73-41.91,32.6-67.91,19.54-16.19-8.14-29.47-19.48-39.1-34.8-37.93,13.83-91.44,18.48-118.57-10.86-4.33-4.68-6.24-11.89-5.36-17.76,23.71-2.48,44.61-4.8,66.48-14.07v.02Z"/>
  <path class="st1" d="M604.54,446.21c-11.36-13.56-26.22-22.11-44.88-20.19-7.75-31.66.06-56.55,30.81-66.69,14.3-4.72,27.09,2.16,34.29,14.74l22.32,52.9-42.54,19.23h0Z"/>
  <path class="st2" d="M606.92,483.19c-6.17,4.24-13.83,3.46-17.14-1.7-2.96-4.62-1.6-12.54,3.94-16.43,21.17-14.88,67.72-40.02,82.2-25.52,3.46,3.46,5.19,9.71,4.17,15.68-27.36,1.86-50.6,12.49-73.16,27.98h0Z"/>
  <path class="st3" d="M830.67,664.65c10.41,39.36-33.22,62.86-71.77,69.92l20.73-28.18c13.24-18.01,28.71-33.27,51.04-41.74h0Z"/>
  <path class="st2" d="M644.24,528.4c-4.56,3.18-11.92,4.09-15,.44-4.95-5.87-2.57-14.73,3.48-18.96,26.8-18.72,76.29-41.37,74.21-6.92-23.32,3.19-42.87,11.63-62.68,25.45h-.01Z"/>
  <path class="st2" d="M672.29,573.65c-4.82,3.41-11.66-.2-13.14-4.34-1.35-3.79,0-10.97,3.9-13.89,17.3-12.99,35.98-22.17,57.05-28.97,3.15-1.02,10.75,1.42,13.33,3.3,3.05,2.23,4.44,7.34,4.16,13.32-24.14,5.78-44.36,15.74-65.3,30.58Z"/>
  <polygon class="st1" points="638.6 494.56 627.58 480.46 668.92 465.13 676.62 477.13 638.6 494.56"/>
  <path class="st1" d="M668.47,539.41c-2.91-1.91-6.48-6.18-9.42-10.46l34.8-14.43c3.14-1.3,9.98,4.81,8.5,7.55l-33.88,17.34Z"/>
  <path class="st3" d="M387.63,536.72s186.85,151.58,381.26,171.88l-24.01,29.5c-36.3,4.16-66.04.43-85.64-3.52-12.69-2.56-39.19-8.84-69.89-24.23-35.37-17.73-33.19-25.92-67.38-43.44-20.12-10.31-39.59-16.62-78.52-29.24-37.08-12.02-52.22-14.79-64.32-30.91-3.16-4.21-14.69-19.57-11.16-39.54,3.12-17.61,16-27.79,19.67-30.5h0Z"/>
</svg>