<?xml version="1.0" encoding="UTF-8"?>
<svg id="Camada_1" xmlns="http://www.w3.org/2000/svg" version="1.1" viewBox="0 0 1000 1000">
  <!-- Generator: Adobe Illustrator 30.4.0, SVG Export Plug-In . SVG Version: 2.1.4 Build 226)  -->
  <defs>
    <style>
      .st0 {
        fill: #045cd6;
      }

      .st1 {
        fill: #fcc400;
      }

      .st2 {
        fill: #fb5600;
      }
    </style>
  </defs>
  <path d="M728.18,741.27c-17.42,21.12-48.98,53.96-97.52,78.78-30.69,15.69-129.44,59.49-239.99,16.94-87.86-33.82-131.98-102.47-147.87-131.38-5.68-10.34-36.27-71.87-36.37-150.25-.16-126.5,77.61-248.09,199.96-289.69l-3.32-28.45-24.43,4.13c-19.36,3.27-38.4-8.84-41.54-28.49l-8.07-50.44c-3.39-21.22,11.36-40.39,32.5-45.19,49.34-11.2,98-19.36,148.25-25.66,22.08-2.77,41.35,10.74,45.22,32.57,6.04,34.02,14.45,85.52-9.45,92.31l-30.63,8.71,2.54,26.42c32.24,3.31,63.16,12.04,91.43,25.89,2.14-.46,8.26-5.39,7.6-7.78l-3.02-10.91c-2.3-8.33,6.36-25.45,18.62-25.07,14.62.45,33.02,11.77,41.39,23.86,6.6,9.54-2.69,24.96-12.04,27.57-7.34,2.05-11.06,5.57-14.71,14.39,24.4,16.04,64.65,47.02,97.34,98.94,14.73,23.39,50.63,82.12,49.47,164.86-1.31,92.87-48.49,157.02-65.35,177.94h0ZM372.64,213.01l163.03-27.45-5.81-55.75c-.95-9.15-9.12-16.15-18.82-14.83-48.59,6.58-95.31,15.01-143.28,24.86-10.62,2.18-15.47,12.3-13.94,21.76l6.66,41.21c.94,5.81,5.29,11.36,12.17,10.2h-.01ZM634.02,292.83l11.52-19.71c6.23,2.18,12.92,2.36,15.06-.96,5.84-9.05-12.27-21.24-27.87-24.43-2.52-.52-8.91,6.99-7.6,9.21l6.03,10.23-9.79,18.35,12.64,7.32h0ZM569.5,807.52c152.02-51.97,224.51-220.67,162.67-367.13-35.63-84.38-112.29-149.43-204.47-162.78-114.87-16.64-219.49,49.34-267.87,150.95-53.99,113.38-30.5,244.26,65.53,327.25,65.96,57.01,158.51,80.98,244.14,51.7h0Z"/>
  <path class="st0" d="M569.5,807.52c-85.63,29.28-178.18,5.31-244.14-51.7-96.03-82.99-119.52-213.87-65.53-327.25,48.38-101.6,153-167.58,267.87-150.95,92.18,13.35,168.84,78.39,204.47,162.78,61.84,146.46-10.65,315.15-162.67,367.13h0ZM674.84,645.24c51.21-101.56,15.36-226.74-82.79-283.09-91.27-52.4-206.19-22.48-265.08,63.02-54.04,78.45-52.75,179.3,6.25,255.14,43.74,56.22,111.8,85.13,183.44,77.28,66.28-7.26,126-48.53,158.18-112.35Z"/>
  <path class="st0" d="M372.64,213.01c-6.88,1.16-11.23-4.39-12.17-10.2l-6.66-41.21c-1.53-9.46,3.33-19.58,13.94-21.76,47.97-9.86,94.7-18.28,143.28-24.86,9.71-1.32,17.87,5.68,18.82,14.83l5.81,55.75-163.03,27.45h.01Z"/>
  <path class="st2" d="M634.02,292.83l-12.64-7.32,9.79-18.35-6.03-10.23c-1.31-2.21,5.08-9.72,7.6-9.21,15.6,3.2,33.7,15.38,27.87,24.43-2.14,3.32-8.84,3.14-15.06.96l-11.52,19.71h0Z"/>
  <path d="M674.84,645.24c-32.18,63.82-91.9,105.09-158.18,112.35-71.64,7.84-139.7-21.06-183.44-77.28-59-75.84-60.28-176.69-6.25-255.14,58.89-85.5,173.82-115.42,265.08-63.02,98.15,56.35,134,181.54,82.79,283.09h0ZM569.63,724.49c69.63-31.13,110.22-102.76,110.96-175.97.75-74.02-40.81-145.2-108.16-177.4-76.33-36.5-163.06-17.03-217.19,46.12-55.44,64.69-65.42,155.43-23.03,229.37,47.74,83.27,147.17,118.23,237.42,77.87h0Z"/>
  <path class="st1" d="M569.63,724.49c-90.25,40.36-189.68,5.4-237.42-77.87-42.39-73.94-32.41-164.68,23.03-229.37,54.13-63.16,140.86-82.62,217.19-46.12,67.35,32.2,108.9,103.38,108.16,177.4-.74,73.21-41.33,144.84-110.96,175.97h0ZM522.65,535.89l15.02-21.79c-5.66,2.14-8.21,4.19-10.26,3.53l-10.92-3.51,14.44-22.65,13.68,13.41,28.5-45.09c-8.13-4.5-10-6.02-14.85-11.4l-53.99,73.05-19.8-132.44c-.55-3.67-3.97-9.03-6.56-10.65s-11.81.34-13.38,3.34c-2.98,5.69-2.01,18.88-1.08,26.34l9.58,77.46,5.11,40.91c-9.13,8.71-11.42,18.93-9.84,32.85,1.12,9.83,11.46,18.9,19.85,21.2,9.71,2.66,22.51-.5,27.68-5.06l-9.42-21.73,16.18-7.2-3.22,24.07c10.43-8.53,10.75-24.36,3.29-34.65h-.01ZM585.05,444.39l15.61-18.31c2.33-2.73,1.14-11.25-1.73-13.26s-11.15-1.68-13.43,1.39l-12.56,16.86,12.11,13.31h0ZM381.98,468.43c1.82,1.35,9.47-5.18,8.63-7.19-.83-2-2.9-7.05-4.6-8.38l-15.93-12.42c-1.97-1.53-8-1.74-10.21-.59s-4.14,9.05-2.02,10.62l24.13,17.95h0ZM651.45,538.57c3.63-.4,8.89-5.98,8.8-9.39-.07-2.85-6.37-8.24-9.44-7.81l-24.9,3.44c-3.1.43-7.85,6.95-7.3,9.8s6.46,6.84,9.83,6.47l23.01-2.51h0ZM338.25,572.78l32.26-5.38c3.5-.58,2.62-13.87-1.13-13.53l-36.35,3.32-2.49,10.49c-.39,1.64,5.98,5.39,7.71,5.1h0ZM622.73,645.98c2.64,1.94,9.98.05,11.38-2.87,1.16-2.43-1.06-9.62-3.36-11.11l-15.39-10.01c-2.36-1.53-8.96-.66-10.65,1.33-1.69,2-.53,8.97,1.55,10.51l16.47,12.15h0ZM386.53,672.34l17.5-20.88c1.34-1.6-.31-9.66-2.38-10.18s-8.01-.02-9.4,1.51l-20.75,22.78c-1.7,1.87,2.05,9.13,4.41,10.02,2.36.9,8.78-1.05,10.62-3.25h0ZM521.81,714.13l-3.48-36.65c-.29-3.08-9.52-6.61-11.64-4.56-1.7,1.65-4.15,6.51-4,8.97l1.66,28.7c.19,3.37,4.58,9.04,7.49,10.2,2.43.97,10.24-3.79,9.97-6.67h0Z"/>
  <path d="M521.81,714.13c.27,2.88-7.54,7.64-9.97,6.67-2.91-1.16-7.3-6.84-7.49-10.2l-1.66-28.7c-.14-2.46,2.3-7.33,4-8.97,2.11-2.05,11.35,1.48,11.64,4.56l3.48,36.65h0Z"/>
  <path d="M338.25,572.78c-1.74.29-8.1-3.47-7.71-5.1l2.49-10.49,36.35-3.32c3.75-.34,4.63,12.94,1.13,13.53l-32.26,5.38h0Z"/>
  <path d="M386.53,672.34c-1.84,2.2-8.25,4.14-10.62,3.25-2.36-.9-6.11-8.16-4.41-10.02l20.75-22.78c1.39-1.53,7.33-2.03,9.4-1.51s3.72,8.59,2.38,10.18l-17.5,20.88h0Z"/>
  <path d="M651.45,538.57l-23.01,2.51c-3.37.37-9.29-3.6-9.83-6.47s4.21-9.38,7.3-9.8l24.9-3.44c3.07-.42,9.37,4.96,9.44,7.81.08,3.41-5.17,8.99-8.8,9.39h0Z"/>
  <path d="M598.93,412.82c-2.84-1.98-11.15-1.68-13.43,1.39l-10.25,13.77h0l-70.98,93.46-19.8-132.44c-.55-3.67-3.97-9.03-6.56-10.65s-11.81.34-13.38,3.34c-2.99,5.69-2.01,18.88-1.09,26.34l9.58,77.46,5.11,40.91c-9.13,8.71-11.42,18.93-9.84,32.85,1.12,9.83,11.46,18.9,19.85,21.2,9.71,2.66,22.51-.5,27.68-5.06l3.54-4.86c10.43-8.53,10.75-24.36,3.29-34.65l15.02-21.79,6.94-9.22,43.8-64.43,12.25-14.37c2.33-2.74,1.15-11.25-1.73-13.26h0Z"/>
  <path d="M381.98,468.43l-24.13-17.95c-2.11-1.57-.2-9.47,2.02-10.62s8.25-.94,10.21.59l15.93,12.42c1.71,1.33,3.78,6.38,4.6,8.38.83,2.01-6.81,8.55-8.63,7.19h0Z"/>
  <path d="M622.73,645.98l-16.47-12.15c-2.08-1.54-3.24-8.52-1.55-10.51,1.69-2,8.3-2.86,10.65-1.33l15.39,10.01c2.3,1.49,4.51,8.69,3.36,11.11-1.39,2.92-8.74,4.81-11.38,2.87h0Z"/>
</svg>