<svg width="131" height="67" viewBox="0 0 131 67" fill="none" xmlns="http://www.w3.org/2000/svg">
<g clip-path="url(#clip0_192_192)">
<path d="M104.237 1.421C106.499 3.61984 112.304 3.25875 112.924 5.39113C113.614 7.76243 111.67 9.05497 109.679 10.6816C108.685 11.4945 107.246 12.1152 106.97 13.4275C106.953 13.5101 106.99 13.6053 106.984 13.6907C106.756 13.4796 106.022 13.9592 105.659 13.6646C105.409 13.4625 105.362 13.0332 105.453 12.646L105.492 12.2427C106.135 11.0706 107.288 9.51126 106.712 7.98249C105.496 4.7516 98.861 2.90935 96.4467 4.73004C93.3814 7.04116 94.3436 10.5909 92.5048 14.9904C86.9395 21.357 93.3236 22.2723 91.5389 29.2047C91.1646 30.6598 91.2719 31.8895 91.1827 33.4398C89.5675 32.1446 89.0038 30.5179 88.8767 28.9047C88.7648 27.4873 89.3303 25.8391 88.6602 24.3615C87.7277 22.3082 86.4561 20.271 87.1153 17.924C88.2408 13.9152 93.1775 9.67204 92.4119 6.86061C91.3856 8.13429 89.3258 9.61007 89.011 11.2843C88.5078 13.9637 86.3181 15.4117 85.4487 17.6653C84.1519 21.0291 89.4286 27.3319 87.7539 28.1215C85.5912 26.4373 84.5478 23.81 83.6586 21.1297C82.9624 19.0306 82.5926 17.0141 83.9282 15.0721C87.3327 10.1212 85.0023 6.59654 89.0074 4.78752C90.9238 3.92164 92.8799 3.37193 94.8937 2.7315C96.3502 2.26802 97.3405 1.17578 98.6626 0.485051C100.48 -0.465265 102.835 0.0566002 104.24 1.42189L104.237 1.421Z" fill="#F3EAFE"/>
<path d="M106.984 13.6907C106.99 13.6054 106.953 13.5101 106.97 13.4275C108.148 12.8733 109.055 11.8826 110.143 11.1909L113.4 9.12234C115 8.10555 115.314 6.17348 114.227 4.50279C113.291 3.06654 111.545 2.09287 109.73 1.9258L104.237 1.4201C104.59 1.16591 104.143 0.970096 104.275 0.321582C106.336 0.353019 108.598 -0.325137 110.661 0.313498C114.411 1.4749 121.059 6.60553 119.615 9.58402C118.3 12.2948 112.442 12.7835 108.905 13.7518C108.115 13.9682 107.484 14.1515 106.984 13.6889V13.6907Z" fill="#F3EAFE"/>
<path d="M104.9 11.7748C104.883 12.0038 104.351 12.232 104.456 12.5571C104.227 12.5266 103.891 12.5499 103.77 12.3918C103.146 11.5763 104.342 9.47621 101.329 9.02172C99.771 8.78638 98.8484 9.31992 97.8717 10.4283L94.1291 14.6796C93.9893 14.4847 93.6051 14.1407 93.8558 13.6727C95.9887 9.68909 95.7867 6.53095 98.0638 5.50608C100.264 4.51625 104.941 6.63515 105.592 8.00763C106.207 9.30196 104.989 10.5954 104.9 11.7748Z" fill="#F3EAFE"/>
<path d="M98.5743 22.1726C98.9413 21.2546 100.096 21.2582 100.572 20.2558C100.124 19.7078 98.1233 21.0884 97.8708 21.6148C97.7256 21.9184 98.1107 22.2004 98.1233 22.5166C98.154 23.2917 98.053 24.2043 97.5732 24.7298C96.3224 23.7525 95.7542 21.5402 96.3855 20.2926C98.4733 20.3483 99.7755 19.0755 101.407 17.9069C102.631 17.0302 103.96 16.4464 105.367 15.2787C104.03 19.2929 101.918 22.3594 99.6934 25.6945C99.4824 24.5474 100.235 23.6636 99.8242 22.4717C99.6592 21.992 98.8692 22.1851 98.5743 22.1717V22.1726Z" fill="#F3EAFE"/>
<path d="M93.918 28.5131C93.7628 28.4808 93.5915 28.5652 93.4337 28.5472C92.6319 24.9211 95.1291 23.8648 93.1406 19.6531C92.6112 18.5321 93.7773 17.253 93.4553 16.203L93.6898 16.2605C93.899 16.7258 94.3878 17.3761 94.1606 18.1225C93.6853 19.6809 94.6917 20.8216 94.836 22.1187C95.0922 24.4091 93.863 26.4463 93.9171 28.5131H93.918Z" fill="#F3EAFE"/>
<path d="M77.8787 57.619C79.2802 56.7549 80.89 57.134 82.1516 56.6534C95.3889 51.6081 102.035 40.6238 120.74 33.1299C123.831 31.8913 127.049 31.9632 130.356 31.0748C129.647 29.7796 128.473 30.3877 127.222 29.8182C127.732 28.8347 128.663 28.1763 129.33 27.4271C134.31 21.8196 126.604 17.7461 126.294 13.6844C125.975 9.4897 124.146 5.39022 119.422 4.28452C119.465 5.72257 120.742 6.16539 121.152 7.30972C123.325 13.3889 111.952 13.3458 109.225 15.3578C107.827 18.7683 111.332 21.4872 107.119 24.3939C104.524 26.1849 101.715 27.4792 99.3345 29.5308C99.0026 30.455 104.642 28.0299 103.884 30.0023C102.97 32.3835 100.213 32.362 98.4543 31.0488C97.9384 30.6634 97.0537 30.2053 97.2476 29.564C97.354 29.2101 98.2144 28.9236 98.429 28.3927C96.5532 26.7319 94.8099 28.699 93.918 28.514C93.7629 28.4817 93.5915 28.5661 93.4337 28.5481C93.9541 30.8997 98.0836 31.2581 98.1603 32.6656C98.2522 34.374 93.0152 34.1144 93.0306 38.8893C94.1615 37.7252 95.1869 36.4156 97.0257 36.7588C96.2447 38.6154 93.1613 39.1453 92.7708 42.1849C96.4296 40.1136 97.8608 41.0307 100.806 39.2549C100.777 38.8974 100.963 38.4402 101.306 38.3926C101.294 38.6549 101.272 39.0187 101.547 39.2073C101.731 39.333 102.011 39.2378 102.133 39.0187C102.203 38.8929 102.186 38.6621 102.234 38.4977C103.688 38.0719 104.938 36.6025 106.634 36.9932C105.019 38.76 102.77 39.1732 101.322 40.3831L92.4173 47.8185C89.4367 50.3075 86.5283 52.7974 82.8415 54.16C79.6193 55.351 75.8703 51.5282 73.4434 56.3696C72.7797 57.6945 71.619 59.6355 73.2838 60.8607C74.0179 61.4014 75.7395 62.2556 76.7027 62.2385C84.2051 61.2577 85.6805 64.5775 91.5236 59.958C96.0346 56.392 101.645 54.5776 107.394 53.9381C119.495 52.5926 114.211 42.3124 128.722 42.722C123.219 39.6061 116.535 41.4412 112.756 46.2269C107.081 53.4117 99.8485 47.92 87.5275 59.7262C85.5922 61.5802 81.5447 60.1744 79.8754 59.252C82.093 58.1085 84.059 58.5235 85.3009 56.7747C84.124 56.8789 83.1545 57.1753 82.1742 57.3648C81.1019 57.5723 79.9331 57.6118 78.7183 57.9406C77.729 58.2082 78.0861 59.8861 77.3574 60.3783C76.1634 59.8026 76.9922 58.166 77.8778 57.6199L77.8787 57.619ZM127.594 24.8142C128.161 25.9855 126.291 31.5859 123.772 29.9179C125.38 28.4511 126.403 26.7975 127.594 24.8142ZM123.911 21.1998C124.291 23.7741 124.461 26.9439 121.458 28.6074C124.186 22.2354 121.192 21.3282 119.011 16.2919C121.613 17.1587 122.735 19.1743 123.911 21.2007V21.1998ZM113.955 18.4584C117.554 22.7124 116.601 29.3574 111.838 32.2452C113.874 27.7415 114.913 23.2001 113.955 18.4584ZM110.95 23.4687C111.827 25.1106 111.203 26.8307 109.809 27.7307C108.816 28.3721 107.944 29.1203 106.65 28.9011L110.949 23.4687H110.95ZM74.4923 59.013C73.7095 58.4543 74.0558 57.7142 74.385 57.3262C74.9712 56.6346 75.5574 55.9196 76.718 56.5106L74.4923 59.013Z" fill="#F3EAFE"/>
<path d="M46.5028 40.5537C46.5028 47.1053 41.162 52.4165 34.5741 52.4165C27.9861 52.4165 22.6454 47.1053 22.6454 40.5537C22.6454 34.0021 27.9861 28.6909 34.5741 28.6909C41.162 28.6909 46.5028 34.0021 46.5028 40.5537ZM40.7463 40.5995C40.758 37.9498 39.3755 35.8003 37.6358 34.744C35.6103 33.5135 33.1014 33.6365 31.1741 34.9659C29.2379 36.3006 28.2242 38.6854 28.3874 40.913C28.5362 42.9502 29.5418 45.1535 31.4717 46.3185C33.4738 47.5275 35.9232 47.5086 37.873 46.2412C39.5017 45.1822 40.7346 43.1226 40.7454 40.6004L40.7463 40.5995Z" fill="#F3EAFE"/>
<path d="M68.2371 51.7518C66.5444 52.0446 65.1023 51.812 63.3221 51.8901L54.7302 38.6189L54.6022 51.7419C52.7173 51.9512 51.0182 51.9674 49.0955 51.7545L49.0901 29.3556C50.8821 29.2227 52.4323 29.202 54.1585 29.361L62.7602 43.0364L62.7359 29.3565C64.5585 29.22 66.3063 29.2254 68.2083 29.3502L68.2362 51.7518H68.2371Z" fill="#F3EAFE"/>
<path d="M12.6052 46.79C12.7188 48.5299 12.7152 50.0829 12.6052 51.8012L0.101106 51.8874L0.0307617 29.3529C2.08516 29.2209 3.86811 29.2209 5.89455 29.3556L5.94235 46.6769L12.6052 46.7891V46.79Z" fill="#F3EAFE"/>
<path d="M58.6785 27.8807C57.6892 28.0927 56.0406 28.4331 55.3678 27.8349L49.8837 19.6117L49.7782 27.9867C48.4831 28.1358 47.2936 28.1628 46.0608 27.9714L46.0897 13.185C47.0231 13.1481 48.7663 12.6361 49.4689 13.3889L55.0143 21.9166L55.146 13.1544C56.3021 12.999 57.3916 13.0035 58.6469 13.1418L58.6785 27.8816V27.8807Z" fill="#F3EAFE"/>
<path d="M43.8657 27.9032C42.7627 28.2661 41.8032 28.0433 40.61 28.0595L34.8491 19.3189C34.4631 22.3333 34.895 24.984 34.8491 27.8637C33.6523 28.223 32.4655 28.1484 31.1398 27.9679L31.1587 13.1589C32.1931 13.1149 33.6667 12.7673 34.4874 13.2389L40.2186 22.2202L40.2998 13.1868C41.5056 12.9721 42.5941 12.9963 43.8233 13.1607L43.8666 27.9041L43.8657 27.9032Z" fill="#F3EAFE"/>
<path d="M4.87724 17.7416C3.01403 20.1507 3.95105 23.5369 6.58713 24.6813C8.71368 25.6046 10.1846 24.2753 11.5004 22.8085C12.294 21.9237 14.2934 22.5112 15.4685 22.6145C14.7272 26.1472 11.4021 28.2661 8.13109 28.3379C4.53634 28.417 1.49893 26.1822 0.462714 23.0294C-0.680824 19.5506 0.662022 15.6461 3.90235 13.8541C6.15245 12.6101 8.74705 12.4224 11.2199 13.4948C13.0939 14.3077 14.9995 15.9623 15.5217 18.7512C9.45139 19.8273 12.0649 16.7626 8.70196 16.2614C7.39789 16.0673 5.93691 16.3691 4.87634 17.7407L4.87724 17.7416Z" fill="#F3EAFE"/>
<path d="M19.9975 29.2721H14.2906V51.8811H19.9975V29.2721Z" fill="#F3EAFE"/>
<path d="M25.1444 26.2621C23.6428 25.5525 21.8446 25.9181 20.3186 26.0394C19.525 26.1031 19.7009 27.5412 19.2274 27.7819C18.018 28.3981 16.585 28.0577 15.1195 27.9292L21.023 13.3305C21.7986 12.876 23.3028 12.9245 24.1921 13.2344L30.0098 27.7855C28.7563 28.3244 27.3972 28.1044 26.0264 27.9616C25.571 27.6768 25.8109 26.5765 25.1453 26.2612L25.1444 26.2621ZM24.1109 22.477C23.5635 20.6132 23.2604 19.5533 22.6724 18.1117C21.7228 19.6656 21.546 21.1423 21.1745 22.7932C22.2558 22.848 23.2532 23.2567 24.1109 22.4761V22.477Z" fill="#F3EAFE"/>
<path d="M76.0029 28.4008C72.7283 28.4718 70.1644 26.5568 70.3889 23.2477C71.473 23.1426 73.1378 22.6908 74.1298 23.386C74.5789 23.7013 74.514 24.7163 74.9541 24.8403C75.6115 25.0253 76.2076 25.0891 76.6405 24.7567C77.197 24.3301 77.3945 23.334 76.737 22.7932C74.9856 21.3525 70.2338 21.004 70.6135 16.8183C70.774 15.0515 72.1881 13.6296 74.1018 13.0484C77.0932 12.1403 80.7259 13.7104 80.9071 17.0752C76.5684 18.789 77.1365 15.7799 75.5881 16.0691C75.0037 16.1787 74.5347 16.4796 74.5302 17.1829C74.5203 18.8842 77.684 18.8949 79.8872 20.9177C81.2093 22.1321 81.2832 24.1666 80.5897 25.9136C80.0134 27.3661 78.1673 28.3541 76.002 28.4008H76.0029Z" fill="#F3EAFE"/>
<path d="M48.0828 66.4575C47.2495 66.621 45.6036 66.9874 44.8668 66.3793L40.0988 59.7855L39.8435 66.4952C38.8172 66.7287 37.8766 66.7135 36.8187 66.5248L36.816 54.389C37.8099 54.318 39.2618 53.9731 40.0951 54.4932L44.6486 60.8553C45.2853 58.6052 44.6873 56.6561 44.994 54.5264C45.9589 54.1294 47.0276 54.1734 48.1387 54.442C48.2316 58.4274 48.2442 62.0975 48.0828 66.4575Z" fill="#F3EAFE"/>
<path d="M68.9965 21.8573L64.8697 22.2767C64.5089 22.6459 64.5143 23.9995 64.8435 24.445C66.0448 24.7962 67.5896 24.4935 69.0867 24.5977C69.5132 25.6873 69.516 26.9628 69.111 28.0855L61.0377 28.037L61.0467 13.1014L69.1083 13.0754C69.3825 13.9062 69.6954 15.5473 69.0858 16.2721C67.9882 16.9853 66.4091 16.2129 64.9914 16.618C64.481 16.7635 64.462 18.453 64.9806 18.5725C66.4885 18.9183 67.761 18.4099 69.111 18.9309C69.1696 19.6845 69.5385 21.2528 68.9965 21.8582V21.8573Z" fill="#F3EAFE"/>
<path d="M17.9675 66.3605L15.013 62.0661C14.3529 63.5778 15.0013 65.0185 14.6289 66.5275C13.4889 66.7099 12.4049 66.7198 11.3308 66.4934L11.3948 54.31L16.7752 54.2677C18.5356 54.2543 20.0733 55.3375 20.526 56.6238C21.1871 58.501 20.5089 60.2481 18.7972 61.4679L21.5767 66.4296C20.682 66.5662 18.597 67.2767 17.9666 66.3605H17.9675ZM17.2 58.2612C17.2 57.5301 16.6039 56.9381 15.8689 56.9381C15.1339 56.9381 14.5378 57.531 14.5378 58.2612C14.5378 58.9915 15.1339 59.5843 15.8689 59.5843C16.6039 59.5843 17.2 58.9915 17.2 58.2612Z" fill="#F3EAFE"/>
<path d="M7.57193 60.1017C9.2728 60.9954 9.81481 62.3625 9.5172 63.9847C8.82549 67.7509 3.3513 66.4287 0.0117713 66.5814L-0.000854492 54.3405C3.05008 54.4581 7.83617 53.3192 8.87058 56.2708C9.3684 57.6899 8.98151 58.9995 7.57102 60.1017H7.57193ZM5.68076 57.4843C5.19557 56.9507 3.83288 56.8043 3.48297 57.2247C3.16462 57.6073 3.19979 58.8738 3.58758 59.1064C4.05113 59.3849 4.90968 59.2367 5.35339 59.0094C5.7475 58.8082 6.23269 58.0914 5.68076 57.4843ZM5.96574 62.1379C5.34798 61.6628 3.76885 61.3852 3.42525 62.1209C3.1547 62.7011 3.24759 63.488 3.47395 63.7457C3.56504 63.849 5.46432 64.1104 6.08569 63.3918C6.33279 63.1053 6.44372 62.5053 5.96574 62.1379Z" fill="#F3EAFE"/>
<path d="M68.9262 61.7068L64.7488 61.9394C64.288 61.9655 64.2853 63.5203 64.747 63.6452C66.1566 64.0269 67.4995 63.6425 69.1056 63.823C69.3473 64.7042 69.3455 65.6976 69.1165 66.629L61.0883 66.5877V54.3225L68.7476 54.3513C69.3446 54.7833 69.1093 56.2304 68.9316 57.019L64.7479 57.3109C64.1464 57.3531 64.3151 58.9987 65.041 59.049C66.4335 59.1451 67.5924 58.9591 68.8892 59.1388C69.0533 59.9364 69.0461 60.6056 68.9262 61.7059V61.7068Z" fill="#F3EAFE"/>
<path d="M59.2963 66.5904L49.9802 66.5949C49.5005 65.1784 50.0957 64.1526 50.7856 63.1053L54.5183 57.4411L50.3662 57.0315C50.1317 56.1198 50.0849 55.2872 50.4276 54.3099L59.014 54.3351C59.4586 54.8471 59.2954 56.0049 58.9184 56.5941L54.4714 63.5526C56.0442 64.0592 57.4457 63.6631 59.1745 63.8014C59.5596 64.5847 59.4334 65.5296 59.2963 66.5913V66.5904Z" fill="#F3EAFE"/>
<path d="M35.08 60.4529C35.08 64.0691 32.1328 67 28.4965 67C24.8603 67 21.9131 64.0691 21.9131 60.4529C21.9131 56.8367 24.8603 53.9058 28.4965 53.9058C32.1328 53.9058 35.08 56.8367 35.08 60.4529ZM31.6891 60.452C31.6891 58.7014 30.2624 57.2831 28.502 57.2831C26.7416 57.2831 25.3148 58.7023 25.3148 60.452C25.3148 62.2017 26.7416 63.6209 28.502 63.6209C30.2624 63.6209 31.6891 62.2017 31.6891 60.452Z" fill="#F3EAFE"/>
<path d="M85.4894 41.723C87.7485 44.6773 86.7132 49.3983 83.5594 51.1328C81.0316 52.5232 78.0762 52.6364 75.4672 51.8406C72.1069 50.8166 69.9714 47.6261 70.7587 44.371C72.7815 44.5192 74.67 43.974 76.2338 44.6404C76.6279 45.4884 76.7487 46.8483 77.6722 47.177C78.6155 47.512 79.7221 47.3611 80.4427 46.4387C83.6316 42.3563 71.9861 42.9545 70.9706 36.666C70.6378 34.6046 71.1366 32.5333 72.8113 31.0387C75.6656 28.4913 80.0459 28.0961 83.3322 30.056C85.4254 31.3046 86.5987 33.3857 86.384 35.8244C77.7741 37.0469 81.5411 33.1953 78.6949 33.613C77.7245 33.7549 76.2644 34.5058 76.7379 35.9205C77.4756 38.1248 83.0679 38.5559 85.4894 41.7221V41.723Z" fill="#F3EAFE"/>
</g>
<defs>
<clipPath id="clip0_192_192">
<rect width="131" height="67" fill="white"/>
</clipPath>
</defs>
</svg>
